<?xml version="1.0" encoding="utf-8"?>
<!-- Generator: Adobe Illustrator 23.0.4, SVG Export Plug-In . SVG Version: 6.00 Build 0)  -->
<!DOCTYPE svg PUBLIC "-//W3C//DTD SVG 1.1//EN" "http://www.w3.org/Graphics/SVG/1.1/DTD/svg11.dtd" [
	<!ENTITY ns_extend "http://ns.adobe.com/Extensibility/1.0/">
	<!ENTITY ns_ai "http://ns.adobe.com/AdobeIllustrator/10.0/">
	<!ENTITY ns_graphs "http://ns.adobe.com/Graphs/1.0/">
	<!ENTITY ns_vars "http://ns.adobe.com/Variables/1.0/">
	<!ENTITY ns_imrep "http://ns.adobe.com/ImageReplacement/1.0/">
	<!ENTITY ns_sfw "http://ns.adobe.com/SaveForWeb/1.0/">
	<!ENTITY ns_custom "http://ns.adobe.com/GenericCustomNamespace/1.0/">
	<!ENTITY ns_adobe_xpath "http://ns.adobe.com/XPath/1.0/">
]>
<svg version="1.1" xmlns:x="&ns_extend;" xmlns:i="&ns_ai;" xmlns:graph="&ns_graphs;"
	 xmlns="http://www.w3.org/2000/svg" xmlns:xlink="http://www.w3.org/1999/xlink" x="0px" y="0px" viewBox="0 0 1000 400"
	 enable-background="new 0 0 1000 400" xml:space="preserve">
<metadata>
	<sfw  xmlns="&ns_sfw;">
		<slices></slices>
		<sliceSourceBounds  bottomLeftOrigin="true" height="3236.375" width="3542" x="0" y="-1044.375"></sliceSourceBounds>
	</sfw>
</metadata>
<g id="FILL-BACKGROUND">
	<rect fill="#FFFFFF" width="1000" height="400"/>
</g>
<g id="N-DIMENSIONS">
</g>
<g id="N-TEXT">
</g>
<g id="AG-DIAGRAM">
	<g id="POLYLINE_900_">
		<g>
			<g>
				
					<line fill="none" stroke="#E74C3C" stroke-width="2" stroke-linecap="round" stroke-linejoin="round" x1="957.988" y1="318.072" x2="956.488" y2="318.072"/>
				
					<line fill="none" stroke="#E74C3C" stroke-width="2" stroke-linecap="round" stroke-linejoin="round" stroke-dasharray="3.0125,5.0209" x1="951.467" y1="318.072" x2="46.206" y2="318.072"/>
				
					<line fill="none" stroke="#E74C3C" stroke-width="2" stroke-linecap="round" stroke-linejoin="round" x1="43.695" y1="318.072" x2="42.195" y2="318.072"/>
			</g>
		</g>
	</g>
</g>
<g id="AG-PEOPLE">
	<g id="POLYLINE_2068_">
		
			<path fill="none" stroke="#E74C3C" stroke-width="1.5" stroke-linecap="round" stroke-linejoin="round" stroke-miterlimit="10" d="
			M463.309,158.192c-0.361,1.411,0.66,2.461,1.014,3.752c0.099,0.363,0.127,0.737,0.366,1.037c0.225,0.283,0.494,0.455,0.608,0.814
			c0.065,0.204,0.106,0.413-0.073,0.56c-0.124,0.102-0.396,0.095-0.531,0.117c-0.539,0.088-1.064,0.235-1.592,0.371
			c-1.366,0.351-2.714,0.728-4.032,1.236c-0.841,0.325-1.769,0.668-2.478,1.243c-0.413,0.335-0.49,1.218-1.004,0.592
			c-0.329-0.4-0.441-0.943-0.514-1.442c-0.189-1.294-0.181-2.644-0.189-3.949c-0.007-1.04-0.011-2.128,0.276-3.138
			c0.254-0.893,0.658-1.713,0.857-2.626c0.283-1.299,0.147-3.057,1.439-3.819c0.634-0.374,1.363-0.587,1.872-1.143
			c0.512-0.559,0.808-1.282,1.294-1.866c0.58-0.697,1.319-1.232,2.03-1.787c1.002-0.782,1.888-1.711,2.915-2.458
			c1.377-1.002,3.243-1.232,4.484-2.415c0.8-0.763,1.276-1.824,1.913-2.715c0.691-0.967,1.477-1.891,2.416-2.626
			c1.963-1.535,4.398-2.315,6.272-3.997c0.616-0.553,1.125-1.195,1.526-1.918c0.45-0.813,0.735-1.72,1.261-2.49
			c0.478-0.701,1.149-1.089,1.994-1.172c1.037-0.102,2.145,0.166,3.061,0.65c0.938,0.496,1.616,1.261,2.029,2.234
			c0.447,1.052,0.739,2.249,0.954,3.368c0.109,0.567,0.055,1.131-0.074,1.691c-0.162,0.706-0.427,1.407-0.821,2.018
			c-0.444,0.689-1.09,1.205-1.592,1.847c-0.79,1.01-1.431,2.7-1.278,3.979c0.066,0.55,0.387,1.043,0.533,1.576
			c0.351,1.281,0.424,2.604,0.609,3.912c0.106,0.749,0.328,1.416,0.327,2.182c-0.001,0.82,0.128,1.409,0.32,2.198
			c0.123,0.503-0.002,1.026,0.153,1.522c0.145,0.462,0.534,0.79,0.683,1.249c0.307,0.945-0.293,1.898,0.308,2.771
			c0.258,0.375,0.4,0.57,0.463,1.013c0.056,0.389,0.095,0.534,0.34,0.823c0.399,0.472,0.66,1.068,0.827,1.662
			c0.135,0.48-0.005,0.849-0.025,1.336c-0.017,0.414,0.184,0.763,0.21,1.163c0.022,0.333-0.17,0.657-0.117,0.989
			c0.054,0.344,0.346,0.512,0.543,0.776c0.238,0.32,0.279,0.699,0.313,1.089c0.12,1.378-0.002,2.762,0.08,4.14
			c0.041,0.685,0.247,1.278,0.482,1.921c0.462,1.264,0.952,2.546,1.238,3.864c0.092,0.424,0.029,0.858,0.124,1.273
			c0.047,0.207,0.356,0.651,0.176,0.878c-0.17,0.214-0.703,0.073-0.899,0.036c-2.042-0.382-3.865-1.551-5.999-1.533
			c-0.859,0.007-1.664,0.284-2.495,0.467c-0.883,0.195-1.783,0.192-2.682,0.121c-1.292-0.103-2.57-0.38-3.865-0.432
			c-1.565-0.062-3.14,0-4.705,0.014c-1.373,0.012-2.739-0.012-4.111-0.026c-0.753-0.008-1.468,0.243-2.214,0.286
			c-0.854,0.049-0.678-0.454-1.08-1.029c-0.175-0.25-0.438-0.443-0.484-0.76c-0.059-0.411,0.212-0.819,0.286-1.21
			c0.07-0.369-0.018-0.687-0.145-1.036c-0.211-0.583-0.366-1.137-0.347-1.764c0.015-0.48,0.245-0.784,0.336-1.223
			c0.049-0.238-0.091-0.43-0.101-0.665c-0.033-0.741,0.673-1.411,0.172-2.151c-0.139-0.204-0.281-0.259-0.514-0.292
			c-0.479-0.068-0.794-0.124-1.228-0.39"/>
	</g>
	<g id="POLYLINE_2067_">
		
			<path fill="none" stroke="#E74C3C" stroke-width="1.5" stroke-linecap="round" stroke-linejoin="round" stroke-miterlimit="10" d="
			M467.811,179.377c-1.742,0.947-3.011,2.573-4.089,4.211c-0.462,0.701-0.846,1.43-1.083,2.238c-0.238,0.811-0.547,1.471-0.855,2.25
			c-0.312,0.789-0.191,1.644-0.23,2.472c-0.051,1.07-0.421,2.073-0.673,3.106c-0.271,1.108-0.303,2.229-0.302,3.365
			c0.002,1.147-0.198,2.414,0.029,3.544c0.231,1.144,1.756,1.162,2.66,1.38c2.096,0.506,4.408,1.319,6.067,2.743
			c0.625,0.537,1.146,1.005,1.949,1.246c0.878,0.264,1.801,0.32,2.713,0.331c0.906,0.011,1.576,0.389,2.176-0.396
			c1.271-1.663,1.504-3.855,2.6-5.605c0.374-0.598,0.882-0.993,1.396-1.468c0.473-0.438,0.814-0.954,1.103-1.528
			c0.282-0.561,0.534-1.145,0.751-1.733"/>
	</g>
	<g id="POLYLINE_2066_">
		
			<path fill="none" stroke="#E74C3C" stroke-width="1.5" stroke-linecap="round" stroke-linejoin="round" stroke-miterlimit="10" d="
			M476.397,205.544c1.295-0.105,2.617-0.165,3.905-0.317c0.672-0.08,1.12-0.329,1.718-0.608c0.695-0.324,1.292,0.031,1.887,0.431
			c1.038,0.698,1.983,1.513,3.052,2.169c0.718,0.44,1.518,0.842,2.12,1.445c0.483,0.485,0.836,1.848,1.626,1.912
			c0.845,0.069,1.067-1.835,1.187-2.293c0.349-1.331,0.623-2.685,1.018-4.003c0.195-0.651,0.435-1.297,0.863-1.835
			c0.453-0.57,1.012-1.02,1.381-1.656c0.527-0.908,0.848-1.945,1.186-2.932c0.764-2.232,1.546-4.691,1.201-7.079
			c-0.196-1.357-0.874-2.228-1.557-3.385c-0.924-1.565-0.415-3.524-0.608-5.242c-0.06-0.532-0.153-1.061-0.276-1.582"/>
	</g>
	<g id="POLYLINE_2065_">
		
			<path fill="none" stroke="#E74C3C" stroke-width="1.5" stroke-linecap="round" stroke-linejoin="round" stroke-miterlimit="10" d="
			M456.013,168.171c0.135,1.486,0.028,3.001-0.177,4.476c-0.107,0.774-0.262,1.562-0.619,2.264c-0.398,0.784-1.013,1.434-1.39,2.232
			c-0.398,0.843-0.563,1.78-0.671,2.699c-0.177,1.507-0.181,3.036-0.114,4.551c0.06,1.346,0.275,2.693,0.202,4.042
			c-0.082,1.523-0.132,3.07,1.239,4.056c0.779,0.56,1.767,0.849,2.688,1.058c0.935,0.212,1.931,0.381,2.894,0.289
			c0.269-0.026,0.535-0.077,0.801-0.122"/>
	</g>
	<g id="POLYLINE_2064_">
		
			<path fill="none" stroke="#E74C3C" stroke-width="1.5" stroke-linecap="round" stroke-linejoin="round" stroke-miterlimit="10" d="
			M465.216,164.359c0.143,1.141,0.164,2.325,0.158,3.473c-0.002,0.439-0.072,0.854-0.221,1.267
			c-0.712,1.983-2.239,3.572-2.901,5.575c-0.36,1.091-0.553,2.239-0.827,3.353c-0.239,0.969-0.217,1.965-0.387,2.945
			c-0.331,1.909-1.265,3.309-2.268,4.92c-0.744,1.195-1.054,2.761-0.916,4.155"/>
	</g>
	<g id="POLYLINE_2063_">
		
			<path fill="none" stroke="#E74C3C" stroke-width="1.5" stroke-linecap="round" stroke-linejoin="round" stroke-miterlimit="10" d="
			M458.561,186.251c1.302,0.231,2.626-0.205,3.888,0.271"/>
	</g>
	<g id="POLYLINE_2062_">
		
			<path fill="none" stroke="#E74C3C" stroke-width="1.5" stroke-linecap="round" stroke-linejoin="round" stroke-miterlimit="10" d="
			M461.478,191.288c-0.074-0.429-0.291-0.87-0.625-1.156c-0.242-0.208-0.603-0.247-0.824-0.466
			c-0.294-0.292-0.175-0.748,0.142-0.966c0.4-0.274,1.044-0.331,1.514-0.341"/>
	</g>
	<g id="POLYLINE_2061_">
		
			<path fill="none" stroke="#E74C3C" stroke-width="1.5" stroke-linecap="round" stroke-linejoin="round" stroke-miterlimit="10" d="
			M484.602,128.546c0.396-1.535,0.905-3.031,1.709-4.404c0.73-1.248,1.652-2.375,2.589-3.471c0.651-0.761,1.352-1.475,1.763-2.399
			c0.528-1.185,0.857-2.462,1.22-3.705c1.006-3.437,1.935-6.909,3.227-10.253c0.521-1.348,1.279-2.594,1.781-3.944
			c0.244-0.656,0.341-1.323,0.272-2.021c-0.115-1.172-0.631-2.235-0.861-3.379c-0.268-1.333-0.438-2.774-0.368-4.135
			c0.028-0.551,0.228-1.051,0.161-1.607c-0.074-0.624-0.406-1.115-0.542-1.702c-0.125-0.538,0.564-0.631,0.971-0.464
			c0.263,0.108,0.417,0.336,0.537,0.585c0.505,1.049,0.647,2.249,0.965,3.357c0.194,0.676,0.723,0.655,1.114,0.097
			c0.396-0.565,0.475-1.289,0.9-1.846c0.548-0.718,1.144-1.296,1.64-2.062c0.39-0.602,1.102-1.884,2-1.601
			c0.529,0.167,0.467,0.148,0.951-0.129c0.179-0.103,0.306-0.147,0.511-0.109c0.399,0.074,0.614,0.472,0.97,0.594
			c0.365,0.125,0.792-0.093,1.164,0.071c0.747,0.33,0.373,1.272,0.239,1.843c-0.194,0.829,0.452,1.303,0.406,2.135
			c-0.053,0.973-0.76,1.869-1.203,2.688c-0.695,1.285-1.145,2.695-1.955,3.918c-1.053,1.59-2.797,2.703-3.341,4.599
			c-0.412,1.436-0.553,2.967-0.828,4.434c-0.304,1.62-0.658,3.231-1.064,4.828c-0.821,3.23-1.781,6.439-2.896,9.58
			c-1.094,3.081-2.702,5.926-3.867,8.975c-0.588,1.539-1.074,3.113-1.518,4.699"/>
	</g>
	<g id="POLYLINE_2060_">
		
			<path fill="none" stroke="#E74C3C" stroke-width="1.5" stroke-linecap="round" stroke-linejoin="round" stroke-miterlimit="10" d="
			M458.133,142.738c-0.608,0.612-0.288,1.527-0.012,2.242c0.367,0.951,0.98,1.862,2.09,1.872c0.377,0.004,0.755-0.065,1.031-0.337"
			/>
	</g>
	<g id="POLYLINE_2059_">
		
			<path fill="none" stroke="#E74C3C" stroke-width="1.5" stroke-linecap="round" stroke-linejoin="round" stroke-miterlimit="10" d="
			M469.783,136.687c1.374-0.872,1.871,3.114,1.709,3.771c-0.06,0.242-0.165,0.444-0.372,0.591"/>
	</g>
	<g id="POLYLINE_2058_">
		
			<path fill="none" stroke="#E74C3C" stroke-width="1.5" stroke-linecap="round" stroke-linejoin="round" stroke-miterlimit="10" d="
			M462.721,148.092c-0.828-1.182-2.046-1.978-2.98-3.066c-1.097-1.278-2.023-2.784-2.602-4.367
			c-0.687-1.879-0.897-3.757,0.086-5.551c0.992-1.811,2.581-3.058,4.638-3.364c1.855-0.276,4.085-0.052,5.549,1.229
			c2.191,1.917,2.536,4.794,3.456,7.371c0.146,0.41,0.291,0.816,0.416,1.232"/>
	</g>
	<g id="POLYLINE_2057_">
		
			<path fill="none" stroke="#E74C3C" stroke-width="1.5" stroke-linecap="round" stroke-linejoin="round" stroke-miterlimit="10" d="
			M444.798,263.143c-1.16-0.03-0.547,2.548-0.559,3.036c-0.027,1.065-0.326,2.13-0.759,3.099c-0.478,1.069-1.155,1.979-1.418,3.137
			c-0.219,0.963-0.331,2.275,0.645,2.862c1.018,0.613,2.612,0.479,3.663-0.011c1.348-0.629,1.766-2.137,2.794-3.112
			c0.569-0.539,1.284-0.894,2-1.195c0.566-0.239,1.363-0.422,1.753-0.955c0.829-1.13-0.161-3.137-0.615-4.185
			c-0.461-1.065-0.445-2.059-0.639-3.188c-0.074-0.428-0.217-0.818-0.626-1.022c-1.093-0.543-2.862,0.111-3.749,0.79
			c-0.38,0.291-0.628,0.884-1.069,1.061c-0.328,0.132-0.676-0.094-0.975-0.202C445.101,263.205,444.952,263.143,444.798,263.143z"/>
	</g>
	<g id="POLYLINE_2056_">
		
			<path fill="none" stroke="#E74C3C" stroke-width="1.5" stroke-linecap="round" stroke-linejoin="round" stroke-miterlimit="10" d="
			M444.798,263.143c0.262-1.511,0.589-2.984,1.118-4.426c0.527-1.432,0.936-2.809,1.108-4.331c0.168-1.477,0.101-3.002,0.368-4.464
			c0.051-0.282,0.122-0.792,0.455-0.894c0.356-0.11,0.871,0.315,1.13,0.449c0.869,0.447,1.839,0.629,2.801,0.75
			c0.636,0.08,1.282,0.138,1.924,0.123c0.229-0.005,0.68-0.156,0.88-0.044c0.326,0.182,0.03,0.664-0.075,0.939
			c-1.191,3.11-2.677,6.196-3.136,9.527c-0.045,0.327-0.077,0.656-0.107,0.985"/>
	</g>
	<g id="POLYLINE_2055_">
		
			<path fill="none" stroke="#E74C3C" stroke-width="1.5" stroke-linecap="round" stroke-linejoin="round" stroke-miterlimit="10" d="
			M448.197,249.071c0.513-3.376,1.163-6.733,1.884-10.07c0.699-3.237,1.561-6.299,3.036-9.272c0.733-1.477,1.174-2.958,1.542-4.561
			c0.361-1.573,0.855-2.979,1.596-4.412c0.547-1.057,0.953-2.07,1.134-3.25c0.257-1.671,0.436-3.352,0.722-5.02
			c0.575-3.344,1.457-6.641,2.437-9.888c0.137-0.455,0.279-0.908,0.419-1.362"/>
	</g>
	<g id="POLYLINE_2054_">
		
			<path fill="none" stroke="#E74C3C" stroke-width="1.5" stroke-linecap="round" stroke-linejoin="round" stroke-miterlimit="10" d="
			M454.481,250.299c0.342-1.566,0.846-3.107,1.5-4.571c0.617-1.382,1.489-2.562,2.293-3.834c1.786-2.825,2.079-6.02,2.817-9.195
			c0.332-1.43,0.917-2.714,1.743-3.926c0.755-1.107,1.558-2.101,2.049-3.358c1.22-3.121,1.906-6.383,3.548-9.337
			c0.835-1.503,1.884-2.846,2.932-4.202c1.12-1.45,2.198-2.92,3.25-4.42c0.253-0.36,0.505-0.72,0.758-1.081"/>
	</g>
	<g id="POLYLINE_2053_">
		
			<path fill="none" stroke="#E74C3C" stroke-width="1.5" stroke-linecap="round" stroke-linejoin="round" stroke-miterlimit="10" d="
			M461.304,279.026c0.127-0.975,0.118-1.951,0.288-2.925c0.193-1.105,0.457-2.201,0.772-3.277c0.545-1.863,1.248-3.856,2.533-5.348
			c1.202-1.397,3.572-2.247,4.79-0.396c0.692,1.052,0.797,2.433,0.76,3.657c-0.062,2.031-0.719,3.952-1.488,5.813
			c-0.533,1.289-1.098,2.564-1.652,3.843c-0.34,0.786-0.578,1.649-1.031,2.38c-0.392,0.632-0.944,0.853-1.68,0.829
			c-0.985-0.033-2.432-0.286-3.131-1.062c-0.495-0.549-0.453-1.354-0.379-2.04C461.106,280.324,461.264,279.026,461.304,279.026z"/>
	</g>
	<g id="POLYLINE_2052_">
		
			<path fill="none" stroke="#E74C3C" stroke-width="1.5" stroke-linecap="round" stroke-linejoin="round" stroke-miterlimit="10" d="
			M462.188,273.451c0.333-1.829,2.256-2.328,3.862-2.272c1.419,0.049,2.727,0.982,3.096,2.376c0.207,0.782,0.217,1.65,0.04,2.438"/>
	</g>
	<g id="POLYLINE_2051_">
		
			<path fill="none" stroke="#E74C3C" stroke-width="1.5" stroke-linecap="round" stroke-linejoin="round" stroke-miterlimit="10" d="
			M442.006,274.354c0.09-0.889,0.232-1.506,0.965-2.076c1.196-0.929,2.586-1.499,3.726-2.513c0.677-0.602,1.394-0.831,2.286-0.924
			c0.859-0.089,1.748-0.09,2.608-0.016c0.339,0.029,0.721,0.061,1.027,0.223c0.268,0.142,0.443,0.372,0.447,0.683"/>
	</g>
	<g id="POLYLINE_2050_">
		
			<path fill="none" stroke="#E74C3C" stroke-width="1.5" stroke-linecap="round" stroke-linejoin="round" stroke-miterlimit="10" d="
			M465.338,267.018c0.835-1.338,1.518-2.767,1.925-4.293c0.494-1.852,0.786-3.771,1.154-5.649c0.147-0.748,0.305-1.496,0.437-2.247
			c0.032-0.179,0.031-0.507,0.161-0.674c0.199-0.256,0.631-0.223,0.915-0.208c1.326,0.069,2.65,0.571,3.893,0.998
			c0.472,0.162,1.473,0.328,1.784,0.826c0.116,0.186,0.089,0.371,0.037,0.575c-0.146,0.572-0.481,1.129-0.721,1.661
			c-0.313,0.693-0.622,1.387-0.925,2.085c-0.719,1.657-1.504,3.313-2.079,5.028c-0.486,1.448-0.676,2.97-1.093,4.437
			c-0.118,0.415-0.25,0.825-0.381,1.236"/>
	</g>
	<g id="POLYLINE_2049_">
		
			<path fill="none" stroke="#E74C3C" stroke-width="1.5" stroke-linecap="round" stroke-linejoin="round" stroke-miterlimit="10" d="
			M469.409,253.962c0.199-3.39,0.667-6.757,1.213-10.107c0.272-1.671,0.515-3.381,1.092-4.98c0.448-1.24,1.222-2.341,1.582-3.615
			c0.362-1.282,0.396-2.639,0.358-3.962c-0.049-1.697-0.053-3.333,0.256-5.009c0.628-3.404,1.67-6.725,2.377-10.115
			c0.658-3.155,0.972-6.349,1.024-9.57c0.006-0.383,0.007-0.766,0.009-1.15"/>
	</g>
	<g id="POLYLINE_2048_">
		
			<path fill="none" stroke="#E74C3C" stroke-width="1.5" stroke-linecap="round" stroke-linejoin="round" stroke-miterlimit="10" d="
			M475.358,255.549c1.271-3,2.414-6.061,3.453-9.148c1.069-3.179,1.623-6.366,2.053-9.682c0.194-1.497,0.403-2.99,0.785-4.452
			c0.35-1.338,0.822-2.645,0.993-4.023c0.147-1.188,0.375-2.2,0.881-3.292c0.673-1.453,1.491-2.837,2.237-4.253
			c1.567-2.971,3.086-5.973,4.355-9.085c0.147-0.36,0.29-0.721,0.434-1.081"/>
	</g>
	<g id="POLYLINE_2047_">
		
			<path fill="none" stroke="#E74C3C" stroke-width="1.5" stroke-linecap="round" stroke-linejoin="round" stroke-miterlimit="10" d="
			M501.438,101.147c2.439,0.018,4.799-1.088,6.34-2.98c1.547-1.9,2.149-4.458,1.619-6.849c-0.296-1.336-0.937-2.584-1.843-3.609"/>
	</g>
	<g id="POLYLINE_2046_">
		
			<path fill="none" stroke="#E74C3C" stroke-width="1.5" stroke-linecap="round" stroke-linejoin="round" stroke-miterlimit="10" d="
			M504.492,85.563c-2.794-1.107-6.046-0.545-8.308,1.435"/>
	</g>
	<g id="POLYLINE_2045_">
		
			<path fill="none" stroke="#E74C3C" stroke-width="1.5" stroke-linecap="round" stroke-linejoin="round" stroke-miterlimit="10" d="
			M495.579,87.588c-2.537,2.751-2.838,7.01-0.704,10.086c0.586,0.845,1.334,1.573,2.191,2.14"/>
	</g>
	<g id="POLYLINE_2044_">
		
			<path fill="none" stroke="#E74C3C" stroke-width="1.5" stroke-linecap="round" stroke-linejoin="round" stroke-miterlimit="10" d="
			M566.164,246.435c-0.663-2.5-1.096-5.046-1.252-7.629c-0.075-1.235-0.083-2.474,0.013-3.708c0.099-1.274,0.284-2.549,0.236-3.829
			c-0.027-0.721-0.113-1.454-0.348-2.14c-0.29-0.845-0.727-1.609-0.943-2.483c-0.294-1.189-0.432-2.415-0.597-3.626
			c-0.215-1.578-0.449-3.154-0.634-4.735c-0.316-2.704-0.248-5.384,0.007-8.091c0.028-0.3,0.061-0.6,0.093-0.9"/>
	</g>
	<g id="POLYLINE_2043_">
		
			<path fill="none" stroke="#E74C3C" stroke-width="1.5" stroke-linecap="round" stroke-linejoin="round" stroke-miterlimit="10" d="
			M558.557,144.088c1.68,0.882,3.481,1,5.277,0.318c0.468-0.178,0.956-0.422,1.229-0.861c0.157-0.252,0.128-0.695,0.404-0.829
			c0.378-0.184,1.219,0.121,1.565,0.322c0.873,0.505,1.442,1.789,1.925,2.609c0.926,1.572,1.77,3.226,2.922,4.652
			c0.556,0.689,1.205,1.38,2.006,1.786c0.769,0.391,1.52,0.41,1.806-0.482c0.042-0.129,0.059-0.269,0.116-0.39
			c0.411,0.041-0.664,4.884-0.847,5.353c-0.351,0.902-0.951,1.682-1.205,2.624c-0.232,0.861-0.269,1.772-0.195,2.657
			c0.064,0.76,0.256,1.556-0.041,2.288c-0.182,0.449-0.393,0.77-0.328,1.259c0.13,0.974,0.61,1.891,0.779,2.868
			c0.127,0.734,0.232,1.528,0.106,2.27c-0.125,0.734-0.618,1.27-0.882,1.946c-0.248,0.635-0.095,1.284,0.002,1.936
			c0.091,0.607,0.12,1.178-0.066,1.77c-0.184,0.584-0.485,1.119-0.381,1.747c0.1,0.6,0.366,1.136,0.414,1.751
			c0.053,0.672,0.057,1.338,0.152,2.006c0.056,0.398,0.175,0.861,0.119,1.269c-0.092,0.674-0.787,0.299-1.191,0.694
			c-0.319,0.312-0.448,0.592-0.879,0.748c-0.793,0.288-1.625,0.316-2.409,0.66c-0.652,0.286-1.234,0.479-1.955,0.406
			c-1.204-0.121-2.376-0.517-3.578-0.685c-3.065-0.428-5.926-1.453-8.925-2.169c-0.923-0.22-1.817-0.341-2.764-0.27
			c-0.894,0.066-1.852,0.176-2.709-0.167c-1.047-0.419-1.329-1.534-1.468-2.554c-0.204-1.496-0.238-3.035-0.249-4.544
			c-0.008-1.114-0.013-2.245,0.265-3.332c0.477-1.864,1.53-3.593,1.168-5.576c-0.194-1.065-0.697-2.034-0.964-3.077
			c-0.21-0.819-0.044-1.561,0.059-2.385c0.166-1.34-0.015-2.718-0.078-4.058c-0.068-1.464-0.019-2.931,0.078-4.393
			c0.051-0.771,0.145-1.542,0.181-2.313c0.005-0.105-0.028-0.222,0.011-0.325c0.118-0.313,0.504-0.36,0.758-0.532
			c0.566-0.383,0.923-1.077,1.237-1.66c0.765-1.417,1.436-2.889,2.131-4.341c0.497-1.04,1.225-2.799,2.465-3.201
			c0.383-0.124,0.836,0.008,1.213,0.087"/>
	</g>
	<g id="POLYLINE_2042_">
		
			<path fill="none" stroke="#E74C3C" stroke-width="1.5" stroke-linecap="round" stroke-linejoin="round" stroke-miterlimit="10" d="
			M571.188,258.45c0.637,0.157,0.731,0.968,0.77,1.507c0.104,1.426-0.104,2.858,0.016,4.286c0.067,0.794,0.311,1.752,0.004,2.531
			c-0.244,0.619-0.824,1.007-1.258,1.48c-0.578,0.629-0.922,1.435-1.458,2.1c-0.816,1.013-1.83,1.672-3.139,1.818
			c-1.168,0.13-2.363-0.046-3.51-0.26c-0.804-0.15-1.665-0.323-2.374-0.755c-0.82-0.499-1.065-1.325-0.859-2.237
			c0.38-1.682,1.836-2.94,3.043-4.052c0.641-0.59,1.304-1.168,1.689-1.965c0.424-0.877,0.532-1.884,0.742-2.823
			c0.16-0.715,0.354-1.735,1.186-1.949c0.695-0.179,1.488,0.189,2.144,0.341c0.865,0.199,1.594,0.025,2.461-0.041
			C570.828,258.415,571.009,258.409,571.188,258.45z"/>
	</g>
	<g id="POLYLINE_2041_">
		
			<path fill="none" stroke="#E74C3C" stroke-width="1.5" stroke-linecap="round" stroke-linejoin="round" stroke-miterlimit="10" d="
			M571.188,258.45c0.246-3.135,0.487-6.278,0.887-9.399c0.083-0.647,0.437-1.6,0.216-2.263c-0.073-0.22-0.2-0.321-0.422-0.389
			c-0.841-0.258-1.912,0.033-2.785-0.001c-0.831-0.032-1.911-0.297-2.734-0.034c-0.195,0.062-0.317,0.134-0.365,0.342
			c-0.031,0.134,0.024,0.3,0.049,0.428c0.106,0.542,0.222,1.062,0.268,1.616c0.119,1.427,0.071,2.871,0.005,4.299
			c-0.065,1.418-0.134,2.867-0.433,4.259c-0.074,0.345-0.168,0.686-0.259,1.028"/>
	</g>
	<g id="POLYLINE_2040_">
		
			<path fill="none" stroke="#E74C3C" stroke-width="1.5" stroke-linecap="round" stroke-linejoin="round" stroke-miterlimit="10" d="
			M572.008,246.447c0.429-2.533,0.706-5.088,0.982-7.642c0.253-2.338,0.262-4.655-0.084-6.984c-0.378-2.548-1.032-5.034-1.593-7.545
			c-0.447-2-0.225-4.043-0.034-6.064c0.263-2.786,0.7-5.505,1.41-8.211"/>
	</g>
	<g id="POLYLINE_2039_">
		
			<path fill="none" stroke="#E74C3C" stroke-width="1.5" stroke-linecap="round" stroke-linejoin="round" stroke-miterlimit="10" d="
			M556.869,209.487c-0.833,2.542-1.506,5.046-1.978,7.679c-0.457,2.55-0.902,5.058-1.922,7.455
			c-0.378,0.887-0.793,1.769-0.994,2.718c-0.217,1.027-0.192,2.088-0.204,3.131c-0.028,2.445-0.446,4.739-1.23,7.057
			c-0.856,2.534-1.977,4.97-3.375,7.251"/>
	</g>
	<g id="POLYLINE_2038_">
		
			<path fill="none" stroke="#E74C3C" stroke-width="1.5" stroke-linecap="round" stroke-linejoin="round" stroke-miterlimit="10" d="
			M541.125,242.509c0.406-2.549,0.81-5.099,1.217-7.648c0.338-2.115,0.632-4.25,1.121-6.337c0.234-0.999,0.572-1.959,0.885-2.934
			c0.31-0.965,0.449-1.952,0.643-2.944c0.155-0.793,0.458-1.549,0.585-2.347c0.124-0.779,0.094-1.577,0.058-2.362
			c-0.12-2.641-0.245-5.282-0.369-7.922"/>
	</g>
	<g id="POLYLINE_2037_">
		
			<path fill="none" stroke="#E74C3C" stroke-width="1.5" stroke-linecap="round" stroke-linejoin="round" stroke-miterlimit="10" d="
			M543.5,254.676c0.367-0.035,0.624,0.006,0.796,0.351c0.181,0.366,0.202,0.844,0.244,1.241c0.093,0.88,0.145,1.761,0.301,2.633
			c0.122,0.683,0.29,1.36,0.528,2.012c0.149,0.407,0.389,0.837,0.429,1.279c0.026,0.286-0.048,0.521-0.238,0.736
			c-0.486,0.552-1.391,0.796-2.06,0.98c-1.219,0.336-2.571,0.339-3.739,0.837c-0.514,0.219-0.773,0.561-1.017,1.055
			c-0.315,0.638-0.643,1.14-1.227,1.559c-0.842,0.604-1.858,0.957-2.873,1.126c-1.321,0.22-2.912,0.33-4.228,0.036
			c-1.393-0.311-1.845-1.876-1.337-3.121c0.566-1.387,1.854-1.882,3.103-2.51c0.535-0.269,0.988-0.604,1.359-1.077
			c0.394-0.503,0.687-1.08,1.002-1.633c0.402-0.705,0.877-1.35,1.341-2.015c0.782-1.12,1.105-2.372,1.729-3.567
			c0.303-0.581,0.738-1.005,1.395-1.135c0.644-0.127,1.413-0.027,1.982,0.309c0.504,0.297,0.8,0.808,1.403,0.913
			C542.756,254.747,543.137,254.702,543.5,254.676z"/>
	</g>
	<g id="POLYLINE_2036_">
		
			<path fill="none" stroke="#E74C3C" stroke-width="1.5" stroke-linecap="round" stroke-linejoin="round" stroke-miterlimit="10" d="
			M543.971,254.695c0.742-3.008,1.775-5.866,3.108-8.658c0.317-0.664,0.466-1.162-0.308-1.46c-1.148-0.441-2.408-0.55-3.567-0.983
			c-0.391-0.146-0.777-0.312-1.134-0.53c-0.267-0.163-0.522-0.426-0.826-0.521c-0.545-0.17-0.702,0.336-0.755,0.783
			c-0.171,1.431-0.286,2.818-0.599,4.232c-0.385,1.735-0.84,3.458-1.29,5.178c-0.087,0.333-0.18,0.664-0.271,0.995"/>
	</g>
	<g id="POLYLINE_2035_">
		
			<path fill="none" stroke="#E74C3C" stroke-width="1.5" stroke-linecap="round" stroke-linejoin="round" stroke-miterlimit="10" d="
			M573.076,183.398c0.378,0.215,0.475,0.462,0.55,0.88c0.299,1.678,0.435,3.43,0.524,5.131c0.069,1.323-0.107,2.658,0.05,3.974
			c0.18,1.513,0.736,2.956,0.989,4.457c0.264,1.569,0.3,3.185-0.113,4.732"/>
	</g>
	<g id="POLYLINE_2034_">
		
			<path fill="none" stroke="#E74C3C" stroke-width="1.5" stroke-linecap="round" stroke-linejoin="round" stroke-miterlimit="10" d="
			M574.237,206.474c-0.035,1.606-0.576,3.491-2.366,3.739c-1.952,0.271-4.034-0.183-5.963-0.442
			c-0.837-0.112-1.695-0.138-2.525-0.289c-0.325-0.059-0.648-0.153-0.918-0.349c-0.813-0.589-1.013-1.725-0.911-2.659"/>
	</g>
	<g id="POLYLINE_2033_">
		
			<path fill="none" stroke="#E74C3C" stroke-width="1.5" stroke-linecap="round" stroke-linejoin="round" stroke-miterlimit="10" d="
			M560.254,202.572c-0.114-0.941-0.299-1.87-0.404-2.813c-0.06-0.54,0.01-1.359-0.241-1.853c-0.069,0.075-0.051,0.274-0.061,0.364
			c-0.059,0.507-0.091,1.015-0.169,1.519c-0.144,0.933-0.394,1.847-0.527,2.783"/>
	</g>
	<g id="POLYLINE_2032_">
		
			<path fill="none" stroke="#E74C3C" stroke-width="1.5" stroke-linecap="round" stroke-linejoin="round" stroke-miterlimit="10" d="
			M559.159,206.474c0.132,0.672,0.263,1.409-0.242,1.955c-0.919,0.993-2.676,1.275-3.91,1.565c-3.111,0.732-7.44,2.009-10.23-0.342
			c-0.519-0.438-1.224-1.015-1.523-1.635c-0.226-0.468-0.101-1.058-0.019-1.543"/>
	</g>
	<g id="POLYLINE_2031_">
		
			<path fill="none" stroke="#E74C3C" stroke-width="1.5" stroke-linecap="round" stroke-linejoin="round" stroke-miterlimit="10" d="
			M543.627,202.572c0.001-1.912,0.067-3.849,0.666-5.683c0.247-0.757,0.573-1.49,0.748-2.27c0.19-0.847,0.186-1.72,0.231-2.583
			c0.061-1.17,0.637-2.115,0.906-3.245c0.457-1.92,0.677-3.959,1.352-5.82c0.142-0.391,0.379-1.11,0.886-1.17"/>
	</g>
	<g id="POLYLINE_2030_">
		
			<path fill="none" stroke="#E74C3C" stroke-width="1.5" stroke-linecap="round" stroke-linejoin="round" stroke-miterlimit="10" d="
			M548.135,149.442c-0.057-1.577,0.099-3.089,0.191-4.66c0.054-0.915,0.028-1.848-0.303-2.714c-0.406-1.062-1.229-1.892-1.943-2.75
			c-0.589-0.708-1.031-1.458-1.371-2.316c-0.592-1.494-0.994-3.057-1.061-4.666"/>
	</g>
	<g id="POLYLINE_2029_">
		
			<path fill="none" stroke="#E74C3C" stroke-width="1.5" stroke-linecap="round" stroke-linejoin="round" stroke-miterlimit="10" d="
			M543.069,128.433c-1.294-3.554-3.389-6.788-4.994-10.203c-0.723-1.539-1.461-3.139-1.746-4.828
			c-0.103-0.608,0.007-1.524-0.433-2.034c-0.437-0.506-1.175-0.717-1.646-1.225c-0.945-1.017-1.439-2.325-2.165-3.486
			c-0.515-0.824-1.463-1.033-2.306-1.43c-0.62-0.292-1.383-0.513-1.951-0.898c-0.124-0.084-0.245-0.175-0.301-0.32
			c-0.263-0.669,0.583-0.65,0.966-0.497c0.645,0.259,1.318,0.486,1.943,0.788c0.259,0.125,0.509,0.349,0.798,0.402
			c0.293,0.054,0.588-0.081,0.773-0.31c0.225-0.279,0.263-0.68,0.142-1.011c-0.115-0.316-0.377-0.556-0.574-0.818
			c-0.27-0.359-0.459-0.76-0.615-1.18c-0.275-0.74-0.55-1.475-0.835-2.211c-0.079-0.205-0.171-0.429-0.169-0.653
			c0.001-0.225,0.099-0.539,0.345-0.614c0.294-0.089,0.484,0.207,0.61,0.428c0.258,0.454,0.37,0.978,0.588,1.45
			c0.23,0.496,0.547,0.912,0.867,1.351c0.211,0.289,0.619,1.565,1.061,1.526c0.455-0.041-0.086-1.343-0.114-1.457
			c-0.212-0.848-0.378-1.708-0.531-2.569c-0.121-0.679-0.324-1.418-0.29-2.115c0.014-0.292,0.095-0.519,0.376-0.65
			c0.253-0.118,0.45-0.075,0.636,0.13c0.232,0.256,0.336,0.674,0.44,0.991c0.283,0.864,0.493,1.757,0.702,2.641
			c0.103,0.436,0.188,0.877,0.304,1.31c0.022,0.082,0.056,0.368,0.138,0.422c0.149,0.098,0.102,0.021,0.183-0.133
			c0.309-0.592,0.325-1.569,0.416-2.222c0.09-0.646,0.094-1.352,0.305-1.977c0.176-0.523,0.851-0.835,0.972-0.11
			c0.125,0.746-0.052,1.672-0.087,2.419c-0.043,0.927-0.1,1.854-0.075,2.783c0.022,0.831,0.012,1.979,0.502,2.715
			c0.586,0.88,1.29-0.42,2.043-0.139c0.772,0.288-0.014,1.042-0.034,1.54c-0.015,0.382,0.094,0.754,0.041,1.137
			c-0.05,0.369-0.245,0.724-0.234,1.101c0.01,0.362,0.198,0.51,0.44,0.762c0.859,0.897,1.391,2.152,1.902,3.266
			c0.729,1.588,1.474,2.953,2.508,4.361c0.98,1.334,1.978,2.697,2.57,4.257c0.424,1.117,0.471,2.355,1.035,3.419
			c0.71,1.339,1.67,2.528,2.356,3.89"/>
	</g>
	<g id="POLYLINE_2028_">
		
			<path fill="none" stroke="#E74C3C" stroke-width="1.5" stroke-linecap="round" stroke-linejoin="round" stroke-miterlimit="10" d="
			M551.373,132.335c0.182,0.437,0.498,0.768,0.859,1.067c0.89,0.736,1.884,1.351,2.924,1.851"/>
	</g>
	<g id="POLYLINE_2027_">
		
			<path fill="none" stroke="#E74C3C" stroke-width="1.5" stroke-linecap="round" stroke-linejoin="round" stroke-miterlimit="10" d="
			M567.443,143.395c-0.626-1.305-0.909-2.604-1.164-4.021c-0.278-1.545-0.707-3.062-1.093-4.583
			c-0.208-0.819-0.415-1.638-0.628-2.455"/>
	</g>
	<g id="POLYLINE_2026_">
		
			<path fill="none" stroke="#E74C3C" stroke-width="1.5" stroke-linecap="round" stroke-linejoin="round" stroke-miterlimit="10" d="
			M563.398,128.433c-0.383-1.801-0.713-3.629-1.256-5.391c-0.246-0.8-0.597-1.549-0.911-2.322c-0.182-0.448-0.305-0.944-0.557-1.36
			c-0.219-0.362-0.467-0.452-0.853-0.586c-0.522-0.18-0.807-0.579-1.128-1.023c-0.561-0.779-1.106-1.567-1.689-2.331
			c-0.188-0.246-0.378-0.49-0.637-0.665c-0.634-0.429-1.476-0.454-2.089-0.927c-0.501-0.386-0.477-0.977,0.157-1.194
			c0.479-0.164,1.071-0.081,1.534,0.094c0.706,0.267,1.116,0.955,1.821,1.224c1.052,0.402,2.125,0.217,2.43-0.96
			c0.193-0.745-0.08-1.569-0.307-2.272c-0.356-1.102-0.968-2.239-0.91-3.431c0.025-0.512,0.451-1.658,1.213-1.257
			c0.395,0.207,0.333,0.959,0.365,1.29c0.128,1.327,0.675,2.579,1.134,3.818c0.085,0.23,0.23,0.841,0.577,0.811
			c0.245-0.022,0.356-0.364,0.403-0.554c0.123-0.504,0.115-1.04,0.229-1.551c0.195-0.871,0.465-1.745,0.799-2.572
			c0.179-0.443,0.412-1.058,0.873-1.289c0.506-0.254,0.876,0.174,0.822,0.668c-0.065,0.593-0.38,1.179-0.564,1.741
			c-0.271,0.828-0.498,1.67-0.644,2.53c-0.031,0.182-0.391,1.708-0.013,1.86c0.118,0.047,0.259-0.106,0.337-0.169
			c0.599-0.482,1.133-1.107,1.653-1.675c0.418-0.457,0.918-1.185,1.592-1.302c0.908-0.158,0.484,0.986,0.182,1.374
			c-0.775,0.991-1.765,1.781-2.404,2.887c-0.16,0.277-0.432,0.75-0.266,1.089c0.153,0.313,0.576,0.316,0.875,0.335
			c0.794,0.051,1.592-0.045,2.385-0.002c0.168,0.009,0.399,0.009,0.536,0.128c0.623,0.539-0.375,1.001-0.795,1.034
			c-0.743,0.058-1.566-0.096-2.205,0.38c-0.425,0.316-0.541,0.683-0.655,1.172c-0.124,0.531-0.414,0.976-0.258,1.526
			c0.197,0.693,0.618,1.368,0.932,2.009c0.403,0.824,0.856,1.623,1.294,2.428c0.786,1.443,1.626,2.875,2.161,4.436"/>
	</g>
	<g id="POLYLINE_2025_">
		
			<path fill="none" stroke="#E74C3C" stroke-width="1.5" stroke-linecap="round" stroke-linejoin="round" stroke-miterlimit="10" d="
			M570.62,132.335c0.419,1.348,0.944,2.74,1.876,3.824c1.128,1.313,1.888,2.691,2.645,4.25c0.457,0.942,1.055,1.764,0.935,2.841
			c-0.151,1.367-0.81,2.603-1.035,3.946c-0.069,0.412-0.031,0.796,0.08,1.199c0.264,0.958,0.55,1.891,0.714,2.875"/>
	</g>
	<g id="POLYLINE_2024_">
		
			<path fill="none" stroke="#E74C3C" stroke-width="1.5" stroke-linecap="round" stroke-linejoin="round" stroke-miterlimit="10" d="
			M555.957,128.433c0.158-0.303,0.321-0.499,0.161-0.814c-0.132-0.259-0.376-0.365-0.344-0.681c0.024-0.237,0.226-0.377,0.315-0.584
			c0.114-0.266-0.01-0.669,0.216-0.876c0.245-0.224,0.751-0.117,1.058-0.28c0.308-0.163,0.481-0.482,0.782-0.653
			c0.513-0.291,1.171-0.14,1.682-0.407c0.261-0.137,0.297-0.376,0.485-0.586c0.472-0.528,0.932-0.102,1.473-0.237
			c0.129-0.032,0.257-0.144,0.379-0.203"/>
	</g>
	<g id="POLYLINE_2023_">
		
			<path fill="none" stroke="#E74C3C" stroke-width="1.5" stroke-linecap="round" stroke-linejoin="round" stroke-miterlimit="10" d="
			M555.514,132.335c-0.028,0.757-0.051,1.374-0.209,2.126c-0.131,0.622-0.235,1.238-0.202,1.876c0.044,0.847,0.31,1.655,0.521,2.471
			c0.192,0.741,0.218,1.388,0.195,2.154c-0.029,0.998,0.018,2.03,0.925,2.626c1.032,0.678,2.258,0.541,3.398,0.255
			c1.468-0.368,2.784-0.978,3.706-2.197"/>
	</g>
</g>
<g id="AG-SPORTS">
	<g id="POLYLINE_803_">
		
			<line fill="none" stroke="#E74C3C" stroke-width="1.5" stroke-linecap="round" stroke-linejoin="round" stroke-miterlimit="10" x1="850.282" y1="128.433" x2="492.995" y2="128.433"/>
	</g>
	<g id="POLYLINE_802_">
		
			<line fill="none" stroke="#E74C3C" stroke-width="1.5" stroke-linecap="round" stroke-linejoin="round" stroke-miterlimit="10" x1="484.631" y1="128.433" x2="149.898" y2="128.433"/>
	</g>
	<g id="POLYLINE_801_">
		
			<line fill="none" stroke="#E74C3C" stroke-width="1.5" stroke-linecap="round" stroke-linejoin="round" stroke-miterlimit="10" x1="149.898" y1="128.433" x2="484.631" y2="128.433"/>
	</g>
	<g id="POLYLINE_800_">
		
			<line fill="none" stroke="#E74C3C" stroke-width="1.5" stroke-linecap="round" stroke-linejoin="round" stroke-miterlimit="10" x1="492.995" y1="128.433" x2="850.282" y2="128.433"/>
	</g>
	<g id="POLYLINE_799_">
		
			<polyline fill="none" stroke="#E74C3C" stroke-width="1.5" stroke-linecap="round" stroke-linejoin="round" stroke-miterlimit="10" points="
			459.454,206.474 117.69,206.474 117.69,128.433 147.915,128.433 		"/>
	</g>
	<g id="POLYLINE_798_">
		
			<line fill="none" stroke="#E74C3C" stroke-width="1.5" stroke-linecap="round" stroke-linejoin="round" stroke-miterlimit="10" x1="477.313" y1="206.474" x2="475.3" y2="206.474"/>
	</g>
	<g id="POLYLINE_797_">
		
			<line fill="none" stroke="#E74C3C" stroke-width="1.5" stroke-linecap="round" stroke-linejoin="round" stroke-miterlimit="10" x1="722.506" y1="132.335" x2="722.506" y2="202.572"/>
	</g>
	<g id="POLYLINE_796_">
		
			<line fill="none" stroke="#E74C3C" stroke-width="1.5" stroke-linecap="round" stroke-linejoin="round" stroke-miterlimit="10" x1="730.31" y1="132.335" x2="730.31" y2="202.572"/>
	</g>
	<g id="POLYLINE_795_">
		
			<line fill="none" stroke="#E74C3C" stroke-width="1.5" stroke-linecap="round" stroke-linejoin="round" stroke-miterlimit="10" x1="738.114" y1="132.335" x2="738.114" y2="202.572"/>
	</g>
	<g id="POLYLINE_794_">
		
			<line fill="none" stroke="#E74C3C" stroke-width="1.5" stroke-linecap="round" stroke-linejoin="round" stroke-miterlimit="10" x1="745.918" y1="132.335" x2="745.918" y2="202.572"/>
	</g>
	<g id="POLYLINE_793_">
		
			<line fill="none" stroke="#E74C3C" stroke-width="1.5" stroke-linecap="round" stroke-linejoin="round" stroke-miterlimit="10" x1="753.722" y1="132.335" x2="753.722" y2="202.572"/>
	</g>
	<g id="POLYLINE_792_">
		
			<line fill="none" stroke="#E74C3C" stroke-width="1.5" stroke-linecap="round" stroke-linejoin="round" stroke-miterlimit="10" x1="761.526" y1="132.335" x2="761.526" y2="202.572"/>
	</g>
	<g id="POLYLINE_791_">
		
			<line fill="none" stroke="#E74C3C" stroke-width="1.5" stroke-linecap="round" stroke-linejoin="round" stroke-miterlimit="10" x1="769.33" y1="132.335" x2="769.33" y2="202.572"/>
	</g>
	<g id="POLYLINE_790_">
		
			<line fill="none" stroke="#E74C3C" stroke-width="1.5" stroke-linecap="round" stroke-linejoin="round" stroke-miterlimit="10" x1="777.134" y1="132.335" x2="777.134" y2="202.572"/>
	</g>
	<g id="POLYLINE_789_">
		
			<line fill="none" stroke="#E74C3C" stroke-width="1.5" stroke-linecap="round" stroke-linejoin="round" stroke-miterlimit="10" x1="784.938" y1="132.335" x2="784.938" y2="202.572"/>
	</g>
	<g id="POLYLINE_788_">
		
			<line fill="none" stroke="#E74C3C" stroke-width="1.5" stroke-linecap="round" stroke-linejoin="round" stroke-miterlimit="10" x1="792.742" y1="132.335" x2="792.742" y2="202.572"/>
	</g>
	<g id="POLYLINE_787_">
		
			<line fill="none" stroke="#E74C3C" stroke-width="1.5" stroke-linecap="round" stroke-linejoin="round" stroke-miterlimit="10" x1="800.547" y1="132.335" x2="800.547" y2="202.572"/>
	</g>
	<g id="POLYLINE_786_">
		
			<line fill="none" stroke="#E74C3C" stroke-width="1.5" stroke-linecap="round" stroke-linejoin="round" stroke-miterlimit="10" x1="808.351" y1="132.335" x2="808.351" y2="202.572"/>
	</g>
	<g id="POLYLINE_785_">
		
			<line fill="none" stroke="#E74C3C" stroke-width="1.5" stroke-linecap="round" stroke-linejoin="round" stroke-miterlimit="10" x1="816.155" y1="132.335" x2="816.155" y2="202.572"/>
	</g>
	<g id="POLYLINE_784_">
		
			<line fill="none" stroke="#E74C3C" stroke-width="1.5" stroke-linecap="round" stroke-linejoin="round" stroke-miterlimit="10" x1="823.959" y1="132.335" x2="823.959" y2="202.572"/>
	</g>
	<g id="POLYLINE_783_">
		
			<line fill="none" stroke="#E74C3C" stroke-width="1.5" stroke-linecap="round" stroke-linejoin="round" stroke-miterlimit="10" x1="831.763" y1="132.335" x2="831.763" y2="202.572"/>
	</g>
	<g id="POLYLINE_782_">
		
			<line fill="none" stroke="#E74C3C" stroke-width="1.5" stroke-linecap="round" stroke-linejoin="round" stroke-miterlimit="10" x1="839.567" y1="132.335" x2="839.567" y2="202.572"/>
	</g>
	<g id="POLYLINE_781_">
		
			<line fill="none" stroke="#E74C3C" stroke-width="1.5" stroke-linecap="round" stroke-linejoin="round" stroke-miterlimit="10" x1="503.992" y1="132.335" x2="503.992" y2="202.572"/>
	</g>
	<g id="POLYLINE_780_">
		
			<line fill="none" stroke="#E74C3C" stroke-width="1.5" stroke-linecap="round" stroke-linejoin="round" stroke-miterlimit="10" x1="511.796" y1="132.335" x2="511.796" y2="202.572"/>
	</g>
	<g id="POLYLINE_779_">
		
			<line fill="none" stroke="#E74C3C" stroke-width="1.5" stroke-linecap="round" stroke-linejoin="round" stroke-miterlimit="10" x1="519.6" y1="132.335" x2="519.6" y2="202.572"/>
	</g>
	<g id="POLYLINE_778_">
		
			<line fill="none" stroke="#E74C3C" stroke-width="1.5" stroke-linecap="round" stroke-linejoin="round" stroke-miterlimit="10" x1="527.404" y1="132.335" x2="527.404" y2="202.572"/>
	</g>
	<g id="POLYLINE_777_">
		
			<line fill="none" stroke="#E74C3C" stroke-width="1.5" stroke-linecap="round" stroke-linejoin="round" stroke-miterlimit="10" x1="535.208" y1="132.335" x2="535.208" y2="202.572"/>
	</g>
	<g id="POLYLINE_776_">
		
			<line fill="none" stroke="#E74C3C" stroke-width="1.5" stroke-linecap="round" stroke-linejoin="round" stroke-miterlimit="10" x1="543.012" y1="132.335" x2="543.012" y2="202.572"/>
	</g>
	<g id="POLYLINE_775_">
		
			<line fill="none" stroke="#E74C3C" stroke-width="1.5" stroke-linecap="round" stroke-linejoin="round" stroke-miterlimit="10" x1="550.816" y1="132.335" x2="550.816" y2="202.572"/>
	</g>
	<g id="POLYLINE_774_">
		
			<line fill="none" stroke="#E74C3C" stroke-width="1.5" stroke-linecap="round" stroke-linejoin="round" stroke-miterlimit="10" x1="558.62" y1="132.335" x2="558.62" y2="202.572"/>
	</g>
	<g id="POLYLINE_773_">
		
			<line fill="none" stroke="#E74C3C" stroke-width="1.5" stroke-linecap="round" stroke-linejoin="round" stroke-miterlimit="10" x1="566.424" y1="132.335" x2="566.424" y2="202.572"/>
	</g>
	<g id="POLYLINE_772_">
		
			<line fill="none" stroke="#E74C3C" stroke-width="1.5" stroke-linecap="round" stroke-linejoin="round" stroke-miterlimit="10" x1="574.228" y1="132.335" x2="574.228" y2="202.572"/>
	</g>
	<g id="POLYLINE_771_">
		
			<line fill="none" stroke="#E74C3C" stroke-width="1.5" stroke-linecap="round" stroke-linejoin="round" stroke-miterlimit="10" x1="582.032" y1="132.335" x2="582.032" y2="202.572"/>
	</g>
	<g id="POLYLINE_770_">
		
			<line fill="none" stroke="#E74C3C" stroke-width="1.5" stroke-linecap="round" stroke-linejoin="round" stroke-miterlimit="10" x1="589.837" y1="132.335" x2="589.837" y2="202.572"/>
	</g>
	<g id="POLYLINE_769_">
		
			<line fill="none" stroke="#E74C3C" stroke-width="1.5" stroke-linecap="round" stroke-linejoin="round" stroke-miterlimit="10" x1="597.641" y1="132.335" x2="597.641" y2="202.572"/>
	</g>
	<g id="POLYLINE_768_">
		
			<line fill="none" stroke="#E74C3C" stroke-width="1.5" stroke-linecap="round" stroke-linejoin="round" stroke-miterlimit="10" x1="605.445" y1="132.335" x2="605.445" y2="202.572"/>
	</g>
	<g id="POLYLINE_767_">
		
			<line fill="none" stroke="#E74C3C" stroke-width="1.5" stroke-linecap="round" stroke-linejoin="round" stroke-miterlimit="10" x1="613.249" y1="132.335" x2="613.249" y2="202.572"/>
	</g>
	<g id="POLYLINE_766_">
		
			<line fill="none" stroke="#E74C3C" stroke-width="1.5" stroke-linecap="round" stroke-linejoin="round" stroke-miterlimit="10" x1="621.053" y1="132.335" x2="621.053" y2="202.572"/>
	</g>
	<g id="POLYLINE_765_">
		
			<line fill="none" stroke="#E74C3C" stroke-width="1.5" stroke-linecap="round" stroke-linejoin="round" stroke-miterlimit="10" x1="628.857" y1="132.335" x2="628.857" y2="202.572"/>
	</g>
	<g id="POLYLINE_764_">
		
			<line fill="none" stroke="#E74C3C" stroke-width="1.5" stroke-linecap="round" stroke-linejoin="round" stroke-miterlimit="10" x1="636.661" y1="132.335" x2="636.661" y2="202.572"/>
	</g>
	<g id="POLYLINE_763_">
		
			<line fill="none" stroke="#E74C3C" stroke-width="1.5" stroke-linecap="round" stroke-linejoin="round" stroke-miterlimit="10" x1="644.465" y1="132.335" x2="644.465" y2="202.572"/>
	</g>
	<g id="POLYLINE_762_">
		
			<line fill="none" stroke="#E74C3C" stroke-width="1.5" stroke-linecap="round" stroke-linejoin="round" stroke-miterlimit="10" x1="652.269" y1="132.335" x2="652.269" y2="202.572"/>
	</g>
	<g id="POLYLINE_761_">
		
			<line fill="none" stroke="#E74C3C" stroke-width="1.5" stroke-linecap="round" stroke-linejoin="round" stroke-miterlimit="10" x1="660.073" y1="132.335" x2="660.073" y2="202.572"/>
	</g>
	<g id="POLYLINE_760_">
		
			<line fill="none" stroke="#E74C3C" stroke-width="1.5" stroke-linecap="round" stroke-linejoin="round" stroke-miterlimit="10" x1="667.877" y1="132.335" x2="667.877" y2="202.572"/>
	</g>
	<g id="POLYLINE_759_">
		
			<line fill="none" stroke="#E74C3C" stroke-width="1.5" stroke-linecap="round" stroke-linejoin="round" stroke-miterlimit="10" x1="675.681" y1="132.335" x2="675.681" y2="202.572"/>
	</g>
	<g id="POLYLINE_758_">
		
			<line fill="none" stroke="#E74C3C" stroke-width="1.5" stroke-linecap="round" stroke-linejoin="round" stroke-miterlimit="10" x1="683.485" y1="132.335" x2="683.485" y2="202.572"/>
	</g>
	<g id="POLYLINE_757_">
		
			<line fill="none" stroke="#E74C3C" stroke-width="1.5" stroke-linecap="round" stroke-linejoin="round" stroke-miterlimit="10" x1="691.289" y1="132.335" x2="691.289" y2="202.572"/>
	</g>
	<g id="POLYLINE_756_">
		
			<line fill="none" stroke="#E74C3C" stroke-width="1.5" stroke-linecap="round" stroke-linejoin="round" stroke-miterlimit="10" x1="699.094" y1="132.335" x2="699.094" y2="202.572"/>
	</g>
	<g id="POLYLINE_755_">
		
			<line fill="none" stroke="#E74C3C" stroke-width="1.5" stroke-linecap="round" stroke-linejoin="round" stroke-miterlimit="10" x1="706.898" y1="132.335" x2="706.898" y2="202.572"/>
	</g>
	<g id="POLYLINE_754_">
		
			<line fill="none" stroke="#E74C3C" stroke-width="1.5" stroke-linecap="round" stroke-linejoin="round" stroke-miterlimit="10" x1="714.702" y1="132.335" x2="714.702" y2="202.572"/>
	</g>
	<g id="POLYLINE_753_">
		
			<line fill="none" stroke="#E74C3C" stroke-width="1.5" stroke-linecap="round" stroke-linejoin="round" stroke-miterlimit="10" x1="168.417" y1="132.335" x2="168.417" y2="202.572"/>
	</g>
	<g id="POLYLINE_752_">
		
			<line fill="none" stroke="#E74C3C" stroke-width="1.5" stroke-linecap="round" stroke-linejoin="round" stroke-miterlimit="10" x1="176.221" y1="132.335" x2="176.221" y2="202.572"/>
	</g>
	<g id="POLYLINE_751_">
		
			<line fill="none" stroke="#E74C3C" stroke-width="1.5" stroke-linecap="round" stroke-linejoin="round" stroke-miterlimit="10" x1="184.025" y1="132.335" x2="184.025" y2="202.572"/>
	</g>
	<g id="POLYLINE_750_">
		
			<line fill="none" stroke="#E74C3C" stroke-width="1.5" stroke-linecap="round" stroke-linejoin="round" stroke-miterlimit="10" x1="191.829" y1="132.335" x2="191.829" y2="202.572"/>
	</g>
	<g id="POLYLINE_749_">
		
			<line fill="none" stroke="#E74C3C" stroke-width="1.5" stroke-linecap="round" stroke-linejoin="round" stroke-miterlimit="10" x1="199.633" y1="132.335" x2="199.633" y2="202.572"/>
	</g>
	<g id="POLYLINE_748_">
		
			<line fill="none" stroke="#E74C3C" stroke-width="1.5" stroke-linecap="round" stroke-linejoin="round" stroke-miterlimit="10" x1="207.437" y1="132.335" x2="207.437" y2="202.572"/>
	</g>
	<g id="POLYLINE_747_">
		
			<line fill="none" stroke="#E74C3C" stroke-width="1.5" stroke-linecap="round" stroke-linejoin="round" stroke-miterlimit="10" x1="215.241" y1="132.335" x2="215.241" y2="202.572"/>
	</g>
	<g id="POLYLINE_746_">
		
			<line fill="none" stroke="#E74C3C" stroke-width="1.5" stroke-linecap="round" stroke-linejoin="round" stroke-miterlimit="10" x1="223.045" y1="132.335" x2="223.045" y2="202.572"/>
	</g>
	<g id="POLYLINE_745_">
		
			<line fill="none" stroke="#E74C3C" stroke-width="1.5" stroke-linecap="round" stroke-linejoin="round" stroke-miterlimit="10" x1="230.849" y1="132.335" x2="230.849" y2="202.572"/>
	</g>
	<g id="POLYLINE_744_">
		
			<line fill="none" stroke="#E74C3C" stroke-width="1.5" stroke-linecap="round" stroke-linejoin="round" stroke-miterlimit="10" x1="238.653" y1="132.335" x2="238.653" y2="202.572"/>
	</g>
	<g id="POLYLINE_743_">
		
			<line fill="none" stroke="#E74C3C" stroke-width="1.5" stroke-linecap="round" stroke-linejoin="round" stroke-miterlimit="10" x1="246.457" y1="132.335" x2="246.457" y2="202.572"/>
	</g>
	<g id="POLYLINE_742_">
		
			<line fill="none" stroke="#E74C3C" stroke-width="1.5" stroke-linecap="round" stroke-linejoin="round" stroke-miterlimit="10" x1="254.261" y1="132.335" x2="254.261" y2="202.572"/>
	</g>
	<g id="POLYLINE_741_">
		
			<line fill="none" stroke="#E74C3C" stroke-width="1.5" stroke-linecap="round" stroke-linejoin="round" stroke-miterlimit="10" x1="262.065" y1="132.335" x2="262.065" y2="202.572"/>
	</g>
	<g id="POLYLINE_740_">
		
			<line fill="none" stroke="#E74C3C" stroke-width="1.5" stroke-linecap="round" stroke-linejoin="round" stroke-miterlimit="10" x1="269.87" y1="132.335" x2="269.87" y2="202.572"/>
	</g>
	<g id="POLYLINE_739_">
		
			<line fill="none" stroke="#E74C3C" stroke-width="1.5" stroke-linecap="round" stroke-linejoin="round" stroke-miterlimit="10" x1="277.674" y1="132.335" x2="277.674" y2="202.572"/>
	</g>
	<g id="POLYLINE_738_">
		
			<line fill="none" stroke="#E74C3C" stroke-width="1.5" stroke-linecap="round" stroke-linejoin="round" stroke-miterlimit="10" x1="285.478" y1="132.335" x2="285.478" y2="202.572"/>
	</g>
	<g id="POLYLINE_737_">
		
			<line fill="none" stroke="#E74C3C" stroke-width="1.5" stroke-linecap="round" stroke-linejoin="round" stroke-miterlimit="10" x1="293.282" y1="132.335" x2="293.282" y2="202.572"/>
	</g>
	<g id="POLYLINE_736_">
		
			<line fill="none" stroke="#E74C3C" stroke-width="1.5" stroke-linecap="round" stroke-linejoin="round" stroke-miterlimit="10" x1="301.086" y1="132.335" x2="301.086" y2="202.572"/>
	</g>
	<g id="POLYLINE_735_">
		
			<line fill="none" stroke="#E74C3C" stroke-width="1.5" stroke-linecap="round" stroke-linejoin="round" stroke-miterlimit="10" x1="308.89" y1="132.335" x2="308.89" y2="202.572"/>
	</g>
	<g id="POLYLINE_734_">
		
			<line fill="none" stroke="#E74C3C" stroke-width="1.5" stroke-linecap="round" stroke-linejoin="round" stroke-miterlimit="10" x1="316.694" y1="132.335" x2="316.694" y2="202.572"/>
	</g>
	<g id="POLYLINE_733_">
		
			<line fill="none" stroke="#E74C3C" stroke-width="1.5" stroke-linecap="round" stroke-linejoin="round" stroke-miterlimit="10" x1="324.498" y1="132.335" x2="324.498" y2="202.572"/>
	</g>
	<g id="POLYLINE_732_">
		
			<line fill="none" stroke="#E74C3C" stroke-width="1.5" stroke-linecap="round" stroke-linejoin="round" stroke-miterlimit="10" x1="332.302" y1="132.335" x2="332.302" y2="202.572"/>
	</g>
	<g id="POLYLINE_731_">
		
			<line fill="none" stroke="#E74C3C" stroke-width="1.5" stroke-linecap="round" stroke-linejoin="round" stroke-miterlimit="10" x1="340.106" y1="132.335" x2="340.106" y2="202.572"/>
	</g>
	<g id="POLYLINE_730_">
		
			<line fill="none" stroke="#E74C3C" stroke-width="1.5" stroke-linecap="round" stroke-linejoin="round" stroke-miterlimit="10" x1="347.91" y1="132.335" x2="347.91" y2="202.572"/>
	</g>
	<g id="POLYLINE_729_">
		
			<line fill="none" stroke="#E74C3C" stroke-width="1.5" stroke-linecap="round" stroke-linejoin="round" stroke-miterlimit="10" x1="355.714" y1="132.335" x2="355.714" y2="202.572"/>
	</g>
	<g id="POLYLINE_728_">
		
			<line fill="none" stroke="#E74C3C" stroke-width="1.5" stroke-linecap="round" stroke-linejoin="round" stroke-miterlimit="10" x1="363.518" y1="132.335" x2="363.518" y2="202.572"/>
	</g>
	<g id="POLYLINE_727_">
		
			<line fill="none" stroke="#E74C3C" stroke-width="1.5" stroke-linecap="round" stroke-linejoin="round" stroke-miterlimit="10" x1="371.323" y1="132.335" x2="371.323" y2="202.572"/>
	</g>
	<g id="POLYLINE_726_">
		
			<line fill="none" stroke="#E74C3C" stroke-width="1.5" stroke-linecap="round" stroke-linejoin="round" stroke-miterlimit="10" x1="379.127" y1="132.335" x2="379.127" y2="202.572"/>
	</g>
	<g id="POLYLINE_725_">
		
			<line fill="none" stroke="#E74C3C" stroke-width="1.5" stroke-linecap="round" stroke-linejoin="round" stroke-miterlimit="10" x1="386.931" y1="132.335" x2="386.931" y2="202.572"/>
	</g>
	<g id="POLYLINE_724_">
		
			<line fill="none" stroke="#E74C3C" stroke-width="1.5" stroke-linecap="round" stroke-linejoin="round" stroke-miterlimit="10" x1="394.735" y1="132.335" x2="394.735" y2="202.572"/>
	</g>
	<g id="POLYLINE_723_">
		
			<line fill="none" stroke="#E74C3C" stroke-width="1.5" stroke-linecap="round" stroke-linejoin="round" stroke-miterlimit="10" x1="402.539" y1="132.335" x2="402.539" y2="202.572"/>
	</g>
	<g id="POLYLINE_722_">
		
			<line fill="none" stroke="#E74C3C" stroke-width="1.5" stroke-linecap="round" stroke-linejoin="round" stroke-miterlimit="10" x1="410.343" y1="132.335" x2="410.343" y2="202.572"/>
	</g>
	<g id="POLYLINE_721_">
		
			<line fill="none" stroke="#E74C3C" stroke-width="1.5" stroke-linecap="round" stroke-linejoin="round" stroke-miterlimit="10" x1="418.147" y1="132.335" x2="418.147" y2="202.572"/>
	</g>
	<g id="POLYLINE_720_">
		
			<line fill="none" stroke="#E74C3C" stroke-width="1.5" stroke-linecap="round" stroke-linejoin="round" stroke-miterlimit="10" x1="425.951" y1="132.335" x2="425.951" y2="202.572"/>
	</g>
	<g id="POLYLINE_719_">
		
			<line fill="none" stroke="#E74C3C" stroke-width="1.5" stroke-linecap="round" stroke-linejoin="round" stroke-miterlimit="10" x1="433.755" y1="132.335" x2="433.755" y2="202.572"/>
	</g>
	<g id="POLYLINE_718_">
		
			<line fill="none" stroke="#E74C3C" stroke-width="1.5" stroke-linecap="round" stroke-linejoin="round" stroke-miterlimit="10" x1="441.559" y1="132.335" x2="441.559" y2="202.572"/>
	</g>
	<g id="POLYLINE_717_">
		
			<line fill="none" stroke="#E74C3C" stroke-width="1.5" stroke-linecap="round" stroke-linejoin="round" stroke-miterlimit="10" x1="449.363" y1="132.335" x2="449.363" y2="202.572"/>
	</g>
	<g id="POLYLINE_716_">
		
			<line fill="none" stroke="#E74C3C" stroke-width="1.5" stroke-linecap="round" stroke-linejoin="round" stroke-miterlimit="10" x1="160.613" y1="132.335" x2="160.613" y2="202.572"/>
	</g>
	<g id="POLYLINE_715_">
		
			<rect x="67.963" y="104.647" fill="none" stroke="#E74C3C" stroke-width="1.5" stroke-linecap="round" stroke-linejoin="round" stroke-miterlimit="10" width="7.929" height="213.426"/>
	</g>
	<g id="POLYLINE_714_">
		
			<rect x="924.29" y="104.647" fill="none" stroke="#E74C3C" stroke-width="1.5" stroke-linecap="round" stroke-linejoin="round" stroke-miterlimit="10" width="7.929" height="213.426"/>
	</g>
	<g id="POLYLINE_713_">
		
			<line fill="none" stroke="#E74C3C" stroke-width="1.5" stroke-linecap="round" stroke-linejoin="round" stroke-miterlimit="10" x1="870.783" y1="132.335" x2="870.783" y2="202.572"/>
	</g>
	<g id="POLYLINE_712_">
		
			<line fill="none" stroke="#E74C3C" stroke-width="1.5" stroke-linecap="round" stroke-linejoin="round" stroke-miterlimit="10" x1="862.979" y1="132.335" x2="862.979" y2="202.572"/>
	</g>
	<g id="POLYLINE_711_">
		
			<line fill="none" stroke="#E74C3C" stroke-width="1.5" stroke-linecap="round" stroke-linejoin="round" stroke-miterlimit="10" x1="855.175" y1="132.335" x2="855.175" y2="202.572"/>
	</g>
	<g id="POLYLINE_710_">
		
			<line fill="none" stroke="#E74C3C" stroke-width="1.5" stroke-linecap="round" stroke-linejoin="round" stroke-miterlimit="10" x1="847.371" y1="132.335" x2="847.371" y2="202.572"/>
	</g>
	<g id="POLYLINE_709_">
		
			<line fill="none" stroke="#E74C3C" stroke-width="1.5" stroke-linecap="round" stroke-linejoin="round" stroke-miterlimit="10" x1="129.396" y1="132.335" x2="129.396" y2="202.572"/>
	</g>
	<g id="POLYLINE_708_">
		
			<line fill="none" stroke="#E74C3C" stroke-width="1.5" stroke-linecap="round" stroke-linejoin="round" stroke-miterlimit="10" x1="152.808" y1="132.335" x2="152.808" y2="202.572"/>
	</g>
	<g id="POLYLINE_707_">
		
			<line fill="none" stroke="#E74C3C" stroke-width="1.5" stroke-linecap="round" stroke-linejoin="round" stroke-miterlimit="10" x1="145.004" y1="132.335" x2="145.004" y2="202.572"/>
	</g>
	<g id="POLYLINE_706_">
		
			<line fill="none" stroke="#E74C3C" stroke-width="1.5" stroke-linecap="round" stroke-linejoin="round" stroke-miterlimit="10" x1="137.2" y1="132.335" x2="137.2" y2="202.572"/>
	</g>
	<g id="POLYLINE_705_">
		
			<rect x="850.282" y="65.002" fill="none" stroke="#E74C3C" stroke-width="1.5" stroke-linecap="round" stroke-linejoin="round" stroke-miterlimit="10" width="1.982" height="141.472"/>
	</g>
	<g id="POLYLINE_704_">
		
			<line fill="none" stroke="#E74C3C" stroke-width="1.5" stroke-linecap="round" stroke-linejoin="round" stroke-miterlimit="10" x1="147.915" y1="128.433" x2="75.892" y2="128.433"/>
	</g>
	<g id="POLYLINE_703_">
		
			<polyline fill="none" stroke="#E74C3C" stroke-width="1.5" stroke-linecap="round" stroke-linejoin="round" stroke-miterlimit="10" points="
			147.915,202.572 121.592,202.572 121.592,132.335 147.915,132.335 		"/>
	</g>
	<g id="POLYLINE_702_">
		
			<line fill="none" stroke="#E74C3C" stroke-width="1.5" stroke-linecap="round" stroke-linejoin="round" stroke-miterlimit="10" x1="121.592" y1="140.139" x2="147.915" y2="140.139"/>
	</g>
	<g id="POLYLINE_701_">
		
			<line fill="none" stroke="#E74C3C" stroke-width="1.5" stroke-linecap="round" stroke-linejoin="round" stroke-miterlimit="10" x1="121.592" y1="147.944" x2="147.915" y2="147.944"/>
	</g>
	<g id="POLYLINE_700_">
		
			<line fill="none" stroke="#E74C3C" stroke-width="1.5" stroke-linecap="round" stroke-linejoin="round" stroke-miterlimit="10" x1="121.592" y1="155.748" x2="147.915" y2="155.748"/>
	</g>
	<g id="POLYLINE_699_">
		
			<line fill="none" stroke="#E74C3C" stroke-width="1.5" stroke-linecap="round" stroke-linejoin="round" stroke-miterlimit="10" x1="121.592" y1="163.552" x2="147.915" y2="163.552"/>
	</g>
	<g id="POLYLINE_698_">
		
			<line fill="none" stroke="#E74C3C" stroke-width="1.5" stroke-linecap="round" stroke-linejoin="round" stroke-miterlimit="10" x1="121.592" y1="171.356" x2="147.915" y2="171.356"/>
	</g>
	<g id="POLYLINE_697_">
		
			<line fill="none" stroke="#E74C3C" stroke-width="1.5" stroke-linecap="round" stroke-linejoin="round" stroke-miterlimit="10" x1="121.592" y1="179.16" x2="147.915" y2="179.16"/>
	</g>
	<g id="POLYLINE_696_">
		
			<line fill="none" stroke="#E74C3C" stroke-width="1.5" stroke-linecap="round" stroke-linejoin="round" stroke-miterlimit="10" x1="121.592" y1="186.964" x2="147.915" y2="186.964"/>
	</g>
	<g id="POLYLINE_695_">
		
			<line fill="none" stroke="#E74C3C" stroke-width="1.5" stroke-linecap="round" stroke-linejoin="round" stroke-miterlimit="10" x1="121.592" y1="194.768" x2="147.915" y2="194.768"/>
	</g>
	<g id="POLYLINE_694_">
		
			<line fill="none" stroke="#E74C3C" stroke-width="1.5" stroke-linecap="round" stroke-linejoin="round" stroke-miterlimit="10" x1="924.29" y1="128.433" x2="852.264" y2="128.433"/>
	</g>
	<g id="POLYLINE_693_">
		
			<line fill="none" stroke="#E74C3C" stroke-width="1.5" stroke-linecap="round" stroke-linejoin="round" stroke-miterlimit="10" x1="852.264" y1="140.139" x2="878.587" y2="140.139"/>
	</g>
	<g id="POLYLINE_692_">
		
			<line fill="none" stroke="#E74C3C" stroke-width="1.5" stroke-linecap="round" stroke-linejoin="round" stroke-miterlimit="10" x1="852.264" y1="147.944" x2="878.587" y2="147.944"/>
	</g>
	<g id="POLYLINE_691_">
		
			<line fill="none" stroke="#E74C3C" stroke-width="1.5" stroke-linecap="round" stroke-linejoin="round" stroke-miterlimit="10" x1="852.264" y1="155.748" x2="878.587" y2="155.748"/>
	</g>
	<g id="POLYLINE_690_">
		
			<line fill="none" stroke="#E74C3C" stroke-width="1.5" stroke-linecap="round" stroke-linejoin="round" stroke-miterlimit="10" x1="852.264" y1="163.552" x2="878.587" y2="163.552"/>
	</g>
	<g id="POLYLINE_689_">
		
			<line fill="none" stroke="#E74C3C" stroke-width="1.5" stroke-linecap="round" stroke-linejoin="round" stroke-miterlimit="10" x1="852.264" y1="171.356" x2="878.587" y2="171.356"/>
	</g>
	<g id="POLYLINE_688_">
		
			<line fill="none" stroke="#E74C3C" stroke-width="1.5" stroke-linecap="round" stroke-linejoin="round" stroke-miterlimit="10" x1="852.264" y1="179.16" x2="878.587" y2="179.16"/>
	</g>
	<g id="POLYLINE_687_">
		
			<line fill="none" stroke="#E74C3C" stroke-width="1.5" stroke-linecap="round" stroke-linejoin="round" stroke-miterlimit="10" x1="852.264" y1="186.964" x2="878.587" y2="186.964"/>
	</g>
	<g id="POLYLINE_686_">
		
			<line fill="none" stroke="#E74C3C" stroke-width="1.5" stroke-linecap="round" stroke-linejoin="round" stroke-miterlimit="10" x1="852.264" y1="194.768" x2="878.587" y2="194.768"/>
	</g>
	<g id="POLYLINE_685_">
		
			<polyline fill="none" stroke="#E74C3C" stroke-width="1.5" stroke-linecap="round" stroke-linejoin="round" stroke-miterlimit="10" points="
			852.264,132.335 878.587,132.335 878.587,202.572 852.264,202.572 		"/>
	</g>
	<g id="POLYLINE_216_">
		
			<rect x="147.915" y="65.002" fill="none" stroke="#E74C3C" stroke-width="1.5" stroke-linecap="round" stroke-linejoin="round" stroke-miterlimit="10" width="1.982" height="141.472"/>
	</g>
	<g id="POLYLINE_215_">
		
			<line fill="none" stroke="#E74C3C" stroke-width="1.5" stroke-linecap="round" stroke-linejoin="round" stroke-miterlimit="10" x1="156.711" y1="202.572" x2="460.555" y2="202.572"/>
	</g>
	<g id="POLYLINE_214_">
		
			<line fill="none" stroke="#E74C3C" stroke-width="1.5" stroke-linecap="round" stroke-linejoin="round" stroke-miterlimit="10" x1="493.675" y1="202.572" x2="847.371" y2="202.572"/>
	</g>
	<g id="POLYLINE_213_">
		
			<line fill="none" stroke="#E74C3C" stroke-width="1.5" stroke-linecap="round" stroke-linejoin="round" stroke-miterlimit="10" x1="480.58" y1="132.335" x2="480.58" y2="134"/>
	</g>
	<g id="POLYLINE_212_">
		
			<line fill="none" stroke="#E74C3C" stroke-width="1.5" stroke-linecap="round" stroke-linejoin="round" stroke-miterlimit="10" x1="149.898" y1="163.552" x2="454.902" y2="163.552"/>
	</g>
	<g id="POLYLINE_211_">
		
			<line fill="none" stroke="#E74C3C" stroke-width="1.5" stroke-linecap="round" stroke-linejoin="round" stroke-miterlimit="10" x1="492.358" y1="163.552" x2="850.282" y2="163.552"/>
	</g>
	<g id="POLYLINE_210_">
		
			<line fill="none" stroke="#E74C3C" stroke-width="1.5" stroke-linecap="round" stroke-linejoin="round" stroke-miterlimit="10" x1="493.263" y1="171.356" x2="850.282" y2="171.356"/>
	</g>
	<g id="POLYLINE_209_">
		
			<line fill="none" stroke="#E74C3C" stroke-width="1.5" stroke-linecap="round" stroke-linejoin="round" stroke-miterlimit="10" x1="495.093" y1="179.16" x2="850.282" y2="179.16"/>
	</g>
	<g id="POLYLINE_208_">
		
			<line fill="none" stroke="#E74C3C" stroke-width="1.5" stroke-linecap="round" stroke-linejoin="round" stroke-miterlimit="10" x1="149.898" y1="186.964" x2="453.225" y2="186.964"/>
	</g>
	<g id="POLYLINE_207_">
		
			<line fill="none" stroke="#E74C3C" stroke-width="1.5" stroke-linecap="round" stroke-linejoin="round" stroke-miterlimit="10" x1="495.761" y1="186.964" x2="850.282" y2="186.964"/>
	</g>
	<g id="POLYLINE_206_">
		
			<line fill="none" stroke="#E74C3C" stroke-width="1.5" stroke-linecap="round" stroke-linejoin="round" stroke-miterlimit="10" x1="149.898" y1="194.768" x2="460.672" y2="194.768"/>
	</g>
	<g id="POLYLINE_205_">
		
			<line fill="none" stroke="#E74C3C" stroke-width="1.5" stroke-linecap="round" stroke-linejoin="round" stroke-miterlimit="10" x1="497.25" y1="194.768" x2="850.282" y2="194.768"/>
	</g>
	<g id="POLYLINE_204_">
		
			<line fill="none" stroke="#E74C3C" stroke-width="1.5" stroke-linecap="round" stroke-linejoin="round" stroke-miterlimit="10" x1="850.282" y1="202.572" x2="493.675" y2="202.572"/>
	</g>
	<g id="POLYLINE_203_">
		
			<line fill="none" stroke="#E74C3C" stroke-width="1.5" stroke-linecap="round" stroke-linejoin="round" stroke-miterlimit="10" x1="460.555" y1="202.572" x2="149.898" y2="202.572"/>
	</g>
	<g id="POLYLINE_202_">
		
			<line fill="none" stroke="#E74C3C" stroke-width="1.5" stroke-linecap="round" stroke-linejoin="round" stroke-miterlimit="10" x1="472.775" y1="132.335" x2="472.775" y2="139.511"/>
	</g>
	<g id="POLYLINE_201_">
		
			<line fill="none" stroke="#E74C3C" stroke-width="1.5" stroke-linecap="round" stroke-linejoin="round" stroke-miterlimit="10" x1="149.898" y1="147.944" x2="462.614" y2="147.944"/>
	</g>
	<g id="POLYLINE_161_">
		
			<line fill="none" stroke="#E74C3C" stroke-width="1.5" stroke-linecap="round" stroke-linejoin="round" stroke-miterlimit="10" x1="488.66" y1="147.944" x2="850.282" y2="147.944"/>
	</g>
	<g id="POLYLINE_160_">
		
			<line fill="none" stroke="#E74C3C" stroke-width="1.5" stroke-linecap="round" stroke-linejoin="round" stroke-miterlimit="10" x1="149.898" y1="155.748" x2="456.213" y2="155.748"/>
	</g>
	<g id="POLYLINE_40_">
		
			<line fill="none" stroke="#E74C3C" stroke-width="1.5" stroke-linecap="round" stroke-linejoin="round" stroke-miterlimit="10" x1="489.736" y1="155.748" x2="850.282" y2="155.748"/>
	</g>
	<g id="POLYLINE_39_">
		
			<line fill="none" stroke="#E74C3C" stroke-width="1.5" stroke-linecap="round" stroke-linejoin="round" stroke-miterlimit="10" x1="149.898" y1="140.139" x2="456.961" y2="140.139"/>
	</g>
	<g id="POLYLINE_38_">
		
			<line fill="none" stroke="#E74C3C" stroke-width="1.5" stroke-linecap="round" stroke-linejoin="round" stroke-miterlimit="10" x1="457.167" y1="132.335" x2="457.167" y2="135.214"/>
	</g>
	<g id="POLYLINE_37_">
		
			<line fill="none" stroke="#E74C3C" stroke-width="1.5" stroke-linecap="round" stroke-linejoin="round" stroke-miterlimit="10" x1="149.898" y1="132.335" x2="459.938" y2="132.335"/>
	</g>
	<g id="POLYLINE_36_">
		
			<line fill="none" stroke="#E74C3C" stroke-width="1.5" stroke-linecap="round" stroke-linejoin="round" stroke-miterlimit="10" x1="471.536" y1="140.139" x2="472.272" y2="140.139"/>
	</g>
	<g id="POLYLINE_35_">
		
			<line fill="none" stroke="#E74C3C" stroke-width="1.5" stroke-linecap="round" stroke-linejoin="round" stroke-miterlimit="10" x1="489.008" y1="140.139" x2="850.282" y2="140.139"/>
	</g>
	<g id="POLYLINE_34_">
		
			<line fill="none" stroke="#E74C3C" stroke-width="1.5" stroke-linecap="round" stroke-linejoin="round" stroke-miterlimit="10" x1="488.384" y1="141.184" x2="488.384" y2="146.308"/>
	</g>
	<g id="POLYLINE_33_">
		
			<line fill="none" stroke="#E74C3C" stroke-width="1.5" stroke-linecap="round" stroke-linejoin="round" stroke-miterlimit="10" x1="466.473" y1="132.335" x2="481.993" y2="132.335"/>
	</g>
	<g id="POLYLINE_32_">
		
			<line fill="none" stroke="#E74C3C" stroke-width="1.5" stroke-linecap="round" stroke-linejoin="round" stroke-miterlimit="10" x1="491.644" y1="132.335" x2="850.282" y2="132.335"/>
	</g>
	<g id="POLYLINE_31_">
		
			<line fill="none" stroke="#E74C3C" stroke-width="1.5" stroke-linecap="round" stroke-linejoin="round" stroke-miterlimit="10" x1="149.898" y1="179.16" x2="453.25" y2="179.16"/>
	</g>
	<g id="POLYLINE_30_">
		
			<line fill="none" stroke="#E74C3C" stroke-width="1.5" stroke-linecap="round" stroke-linejoin="round" stroke-miterlimit="10" x1="461.23" y1="179.16" x2="467.569" y2="179.16"/>
	</g>
	<g id="POLYLINE_29_">
		
			<line fill="none" stroke="#E74C3C" stroke-width="1.5" stroke-linecap="round" stroke-linejoin="round" stroke-miterlimit="10" x1="457.167" y1="140.736" x2="457.167" y2="153.128"/>
	</g>
	<g id="POLYLINE_28_">
		
			<line fill="none" stroke="#E74C3C" stroke-width="1.5" stroke-linecap="round" stroke-linejoin="round" stroke-miterlimit="10" x1="457.167" y1="193.549" x2="457.167" y2="202.572"/>
	</g>
	<g id="POLYLINE_27_">
		
			<line fill="none" stroke="#E74C3C" stroke-width="1.5" stroke-linecap="round" stroke-linejoin="round" stroke-miterlimit="10" x1="149.898" y1="171.356" x2="455.98" y2="171.356"/>
	</g>
	<g id="POLYLINE_26_">
		
			<line fill="none" stroke="#E74C3C" stroke-width="1.5" stroke-linecap="round" stroke-linejoin="round" stroke-miterlimit="10" x1="464.008" y1="171.356" x2="466.85" y2="171.356"/>
	</g>
	<g id="POLYLINE_25_">
		
			<line fill="none" stroke="#E74C3C" stroke-width="1.5" stroke-linecap="round" stroke-linejoin="round" stroke-miterlimit="10" x1="464.971" y1="169.546" x2="464.971" y2="181.901"/>
	</g>
	<g id="POLYLINE_24_">
		
			<line fill="none" stroke="#E74C3C" stroke-width="1.5" stroke-linecap="round" stroke-linejoin="round" stroke-miterlimit="10" x1="75.892" y1="206.474" x2="459.454" y2="206.474"/>
	</g>
	<g id="POLYLINE_23_">
		
			<line fill="none" stroke="#E74C3C" stroke-width="1.5" stroke-linecap="round" stroke-linejoin="round" stroke-miterlimit="10" x1="496.188" y1="132.335" x2="496.188" y2="187.711"/>
	</g>
	<g id="POLYLINE_22_">
		
			<line fill="none" stroke="#E74C3C" stroke-width="1.5" stroke-linecap="round" stroke-linejoin="round" stroke-miterlimit="10" x1="496.188" y1="198.296" x2="496.188" y2="202.572"/>
	</g>
	<g id="POLYLINE_21_">
		
			<line fill="none" stroke="#E74C3C" stroke-width="1.5" stroke-linecap="round" stroke-linejoin="round" stroke-miterlimit="10" x1="475.3" y1="206.474" x2="477.313" y2="206.474"/>
	</g>
	<g id="POLYLINE_20_">
		
			<line fill="none" stroke="#E74C3C" stroke-width="1.5" stroke-linecap="round" stroke-linejoin="round" stroke-miterlimit="10" x1="492.346" y1="206.474" x2="924.29" y2="206.474"/>
	</g>
	<g id="POLYLINE_19_">
		
			<polyline fill="none" stroke="#E74C3C" stroke-width="1.5" stroke-linecap="round" stroke-linejoin="round" stroke-miterlimit="10" points="
			852.264,128.433 882.489,128.433 882.489,206.474 492.346,206.474 		"/>
	</g>
</g>
<g id="AG-OUTLINE">
	<g id="POLYLINE_1812_">
		
			<polyline fill="none" stroke="#E74C3C" stroke-width="2" stroke-linecap="round" stroke-linejoin="round" stroke-miterlimit="10" points="
			852.264,128.433 882.489,128.433 882.489,206.474 492.346,206.474 		"/>
	</g>
	<g id="POLYLINE_1811_">
		<path fill="none" stroke="#E74C3C" stroke-width="2" stroke-linecap="round" stroke-linejoin="round" stroke-miterlimit="10" d="
			M470.445,270.791c-0.137,3.783-2.196,7.261-3.583,10.69c-0.278,0.686-0.543,1.616-1.273,1.963
			c-0.796,0.379-1.886,0.078-2.676-0.148c-0.635-0.182-1.352-0.453-1.671-1.078c-0.346-0.679-0.184-1.581-0.076-2.291
			c0.274-1.802,0.33-3.589,0.747-5.375c0.354-1.517,0.798-3.021,1.426-4.449c0.354-0.806,0.768-1.6,1.301-2.304
			c0.259-0.342,0.59-0.628,0.824-0.982c1.047-1.581,1.687-3.41,2.07-5.254c0.448-2.152,0.87-4.313,1.274-6.473
			c0.049-0.265,0.026-0.711,0.215-0.943c0.089-0.109,0.268-0.094,0.34-0.175c0.157-0.174,0.103-0.931,0.124-1.206
			c0.034-0.453,0.072-0.906,0.117-1.358c0.111-1.124,0.246-2.245,0.394-3.364c0.277-2.085,0.588-4.173,0.975-6.24
			c0.178-0.952,0.384-1.907,0.704-2.823c0.294-0.839,0.726-1.61,1.11-2.41c0.66-1.375,0.865-2.848,0.879-4.363
			c0.018-2.019-0.121-3.951,0.25-5.953c0.369-1.99,0.924-3.943,1.406-5.907c0.96-3.914,1.746-7.815,1.933-11.851
			c0.047-1.013,0.059-2.026,0.066-3.04c-0.224,0.023-0.47,0.022-0.69,0.069c-0.263,0.056-0.216,0.045-0.377,0.233
			c-0.12,0.142-0.215,0.305-0.358,0.428c-0.123,0.106-0.229,0.133-0.366,0.199c-0.047,0.023-0.126-0.026-0.165-0.002
			c-0.134,0.081-0.277,0.395-0.364,0.519c-0.216,0.308-0.431,0.615-0.647,0.923c-0.58,0.827-1.158,1.657-1.766,2.464
			c-1.182,1.569-2.473,3.069-3.528,4.73c-0.979,1.542-1.74,3.211-2.359,4.927c-0.673,1.868-1.141,3.814-1.891,5.653
			c-0.58,1.421-1.614,2.539-2.406,3.838c-1.902,3.119-1.673,6.972-3.037,10.312c-0.664,1.625-1.727,2.943-2.606,4.444
			c-0.891,1.521-1.516,3.216-1.984,4.911c-0.109,0.396-0.209,0.795-0.296,1.196c0.511-0.071,0.091,0.776,0.032,0.932
			c-0.754,1.974-1.604,3.917-2.27,5.924c-0.282,0.848-0.525,1.71-0.698,2.587c-0.111,0.562-0.417,1.573-0.204,2.086
			c0.09,0.217,0.229,0.369,0.287,0.615c0.155,0.651,0.11,1.336,0.223,1.994c0.215,1.244,0.967,2.316,1.219,3.559
			c0.118,0.58,0.232,1.317-0.064,1.864c-0.317,0.586-1.08,0.783-1.646,1.015c-0.82,0.336-1.649,0.724-2.282,1.36
			c-1.122,1.129-1.544,2.702-3.181,3.209c-1.097,0.34-3.057,0.459-3.733-0.704c-1.006-1.731,0.623-3.939,1.295-5.42
			c0.497-1.095,0.813-2.306,0.778-3.514c-0.019-0.657-0.389-1.849,0.11-2.444c0.109-0.129,0.273-0.126,0.374-0.218
			c0.306-0.277,0.345-1.469,0.451-1.941c0.39-1.735,1.197-3.336,1.576-5.069c0.405-1.854,0.378-3.749,0.568-5.628
			c0.038-0.374,0.051-1.332,0.533-1.481c0.107-0.033,0.248,0.001,0.348,0.043c0.65-4.274,1.453-8.561,2.503-12.756
			c0.465-1.859,1.012-3.691,1.842-5.422c0.436-0.909,0.927-1.796,1.294-2.737c0.398-1.02,0.618-2.096,0.862-3.161
			c0.209-0.913,0.432-1.824,0.799-2.689c0.38-0.897,0.893-1.73,1.288-2.62c0.659-1.487,0.721-3.154,0.945-4.742
			c0.599-4.248,1.614-8.413,2.87-12.514c0.108-0.354,0.409-0.932,0.303-1.25c-0.02-0.059-0.115-0.135-0.15-0.193
			c-0.124-0.208-0.156-0.461-0.18-0.697c-0.086-0.858,0.008-1.735,0.007-2.596c-0.001-0.976-0.028-1.96,0.092-2.931
			c0.044-0.353,0.11-0.702,0.193-1.048c-1.969,0.334-4.204,0.002-5.962-0.963c-1.195-0.656-1.737-1.804-1.723-3.151
			c0.007-0.644,0.093-1.284,0.079-1.929c-0.016-0.773-0.104-1.544-0.161-2.314c-0.107-1.463-0.133-2.938-0.042-4.402
			c0.072-1.149,0.19-2.349,0.606-3.432c0.324-0.845,0.902-1.521,1.369-2.287c1.041-1.709,1.07-4.134,1.034-6.06
			c-0.006-0.336-0.023-0.671-0.054-1.006c-0.2,0.177-0.572-0.464-0.631-0.578c-0.583-1.141-0.434-2.705-0.476-3.936
			c-0.047-1.414-0.138-2.946,0.267-4.32c0.168-0.572,0.439-1.107,0.614-1.677c0.216-0.705,0.341-1.436,0.467-2.162
			c0.13-0.746,0.169-1.694,0.766-2.25c0.656-0.612,1.63-0.745,2.261-1.401c0.64-0.666,0.983-1.562,1.626-2.237
			c0.171-0.179,0.353-0.346,0.54-0.508c0.316-0.273,0.953-0.582,1.159-0.923c0.109-0.18,0.088-0.064-0.024-0.278
			c-0.064-0.122-0.184-0.235-0.273-0.341c-0.169-0.2-0.345-0.397-0.533-0.579c-0.181-0.175-0.41-0.439-0.606-0.406
			c-0.053,0.009-0.146,0.111-0.201,0.138c-0.174,0.087-0.381,0.117-0.573,0.131c-0.538,0.039-1.04-0.111-1.433-0.483
			c-0.666-0.629-1.592-2.455-1.048-3.371c0.109-0.183,0.19-0.165,0.145-0.38c-0.07-0.336-0.404-0.732-0.551-1.052
			c-0.319-0.691-0.576-1.416-0.756-2.155c-0.198-0.812-0.303-1.66-0.17-2.492c0.269-1.685,1.402-3.32,2.813-4.261
			c1.601-1.067,3.742-1.206,5.584-0.821c1.904,0.398,3.043,1.553,4.007,3.194c0.31,0.529,0.596,1.08,0.795,1.661
			c1.382-0.876,1.958,3.234,1.653,3.957c-0.038,0.091-0.093,0.162-0.141,0.246c-0.024,0.042-0.106,0.075-0.121,0.117
			c-0.053,0.153,0.055,0.382,0.111,0.569c1.186-1.891,2.621-3.505,4.578-4.611c1.858-1.05,3.903-1.98,5.36-3.593
			c1.045-1.157,1.379-2.678,2.27-3.92c0.251-0.35,0.535-0.551,0.876-0.799c0.225-0.164,0.242-0.141,0.326-0.459
			c0.08-0.302,0.165-0.602,0.258-0.9c0.188-0.606,0.404-1.202,0.66-1.783c1.02-2.304,2.719-4.089,4.292-6.016
			c1.011-1.239,1.383-2.887,1.823-4.39c0.817-2.794,1.583-5.608,2.515-8.366c0.411-1.215,0.837-2.428,1.352-3.603
			c0.435-0.991,1.022-1.927,1.366-2.956c0.08-0.24,0.116-0.279-0.025-0.453c-0.12-0.148-0.365-0.263-0.515-0.386
			c-0.34-0.276-0.656-0.579-0.947-0.906c-0.589-0.664-1.068-1.424-1.411-2.243c-0.675-1.613-0.808-3.429-0.375-5.123
			c0.219-0.858,0.581-1.678,1.065-2.419c0.196-0.299,0.685-0.7,0.791-1.021c0.032-0.095-0.066-0.196-0.034-0.303
			c0.053-0.173,0.162-0.233,0.333-0.287c0.091-0.029,0.207-0.008,0.291-0.04c0.384-0.148,0.764-0.572,1.131-0.799
			c1.2-0.742,2.59-1.16,4-1.203c1.052-0.032,1.975,0.216,2.98,0.473c0.305,0.078,0.277,0.003,0.528-0.088
			c0.058-0.021,0.111-0.04,0.172-0.046c0.533-0.053,0.823,0.551,1.298,0.629c0.525,0.086,1.135-0.186,1.418,0.432
			c0.071,0.155,0.078,0.325,0.068,0.492c-0.022,0.408-0.243,0.684,0.005,1.032c0.206,0.289,0.431,0.557,0.62,0.858
			c0.628,1.002,1.032,2.14,1.175,3.314c0.311,2.549-0.643,5.157-2.528,6.903c-0.875,0.811-1.929,1.423-3.067,1.781
			c-0.551,0.173-1.121,0.288-1.697,0.339c-0.18,0.016-0.585-0.05-0.732,0.033c-0.134,0.075-0.156,0.32-0.196,0.499
			c-0.149,0.665-0.245,1.343-0.362,2.014c-0.9,5.195-2.249,10.278-3.933,15.274c-0.891,2.643-2.046,5.128-3.221,7.652
			c-0.513,1.101-0.966,2.228-1.373,3.372c-0.218,0.614-0.423,1.232-0.616,1.854c-0.177,0.571-0.547,1.335-0.549,1.93
			c-0.002,0.59,0.317,1.125,0.275,1.744c-0.05,0.732-0.271,1.467-0.573,2.132c-0.52,1.143-1.541,1.846-2.209,2.881
			c-0.629,0.976-1.212,2.542-1.029,3.709c0.079,0.502,0.367,0.953,0.506,1.441c0.329,1.152,0.452,2.366,0.58,3.554
			c0.074,0.689,0.315,1.347,0.365,2.036c0.046,0.646-0.043,1.295,0.094,1.933c0.137,0.641,0.287,1.131,0.307,1.782
			c0.014,0.469,0.161,0.814,0.419,1.2c0.217,0.326,0.381,0.61,0.423,1.004c0.061,0.577-0.161,1.158-0.066,1.732
			c0.065,0.391,0.314,0.637,0.522,0.962c0.175,0.274,0.204,0.497,0.251,0.819c0.036,0.248,0.072,0.409,0.221,0.606
			c0.359,0.474,0.613,0.878,0.826,1.457c0.311,0.843-0.008,1.628,0.216,2.484c0.133,0.51-0.185,1.034,0.012,1.507
			c0.125,0.3,0.446,0.469,0.601,0.753c0.262,0.479,0.225,1.133,0.246,1.653c0.066,1.69-0.184,3.397,0.402,5.012
			c0.439,1.21,0.89,2.42,1.225,3.664c0.154,0.572,0.153,1.06,0.224,1.632c0.03,0.24,0.546,1.093,0.008,1.13
			c0.392,1.658,0.242,3.255,0.353,4.934c0.083,1.251,0.645,1.993,1.29,3.027c1.32,2.115,0.913,4.776,0.3,7.057
			c-0.453,1.687-0.969,3.502-1.802,5.046c-0.487,0.903-1.366,1.485-1.844,2.387c-0.786,1.483-1.009,3.325-1.417,4.927
			c-0.163,0.64-0.297,2.09-0.937,2.534c-0.147,0.102-0.29,0.025-0.415,0.08c-0.222,0.097-0.338,0.629-0.457,0.922
			c-0.212,0.523-0.429,1.044-0.654,1.562c-0.839,1.932-1.78,3.819-2.734,5.696c-0.943,1.855-1.986,3.658-2.921,5.516
			c-0.357,0.709-0.705,1.435-0.921,2.201c-0.203,0.722-0.238,1.47-0.352,2.209c-0.282,1.832-1.007,3.574-1.335,5.402
			c-0.367,2.048-0.534,4.125-0.866,6.178c-0.671,4.139-2.202,8.094-3.69,11.995c-0.328,0.86-0.669,1.715-1.024,2.565
			c-0.062,0.147-0.354,0.595-0.314,0.742c0.009,0.033,0.101,0.049,0.117,0.084c0.029,0.062,0.12,0.109,0.156,0.176
			c0.192,0.366-0.1,0.849-0.244,1.171c-0.89,1.99-1.776,3.979-2.626,5.987c-0.725,1.713-1.205,3.391-1.596,5.206
			C470.973,269.061,470.72,269.926,470.445,270.791z"/>
	</g>
	<g id="POLYLINE_899_">
		<path fill="none" stroke="#E74C3C" stroke-width="2" stroke-linecap="round" stroke-linejoin="round" stroke-miterlimit="10" d="
			M467.811,179.377c-0.337-0.118-0.307-0.548-0.447-0.816c-0.159-0.304-0.496-0.51-0.583-0.852
			c-0.102-0.404,0.164-0.833,0.251-1.211c0.11-0.478-0.032-0.854-0.197-1.306c-0.209-0.574-0.32-1.17-0.264-1.783
			c0.037-0.405,0.32-0.745,0.344-1.126c0.016-0.249-0.141-0.471-0.114-0.73c0.056-0.523,0.409-0.94,0.333-1.487
			c-0.129-0.934-0.798-0.644-1.459-0.927c-0.157-0.067-0.307-0.155-0.452-0.244c-0.739,2.364-2.596,4.18-3.206,6.612
			c-0.319,1.271-0.697,2.581-0.806,3.89c-0.101,1.21-0.269,2.371-0.708,3.509c-0.475,1.23-1.318,2.201-1.942,3.346
			c1.302,0.231,2.626-0.205,3.888,0.271c0.667-2.464,2.25-4.754,4.195-6.408C466.901,179.895,467.491,179.377,467.811,179.377z"/>
	</g>
	<g id="POLYLINE_898_">
		
			<polyline fill="none" stroke="#E74C3C" stroke-width="2" stroke-linecap="round" stroke-linejoin="round" stroke-miterlimit="10" points="
			459.454,206.474 117.69,206.474 117.69,128.433 147.915,128.433 		"/>
	</g>
	<g id="POLYLINE_897_">
		
			<line fill="none" stroke="#E74C3C" stroke-width="2" stroke-linecap="round" stroke-linejoin="round" stroke-miterlimit="10" x1="484.631" y1="128.433" x2="149.898" y2="128.433"/>
	</g>
	<g id="POLYLINE_896_">
		
			<line fill="none" stroke="#E74C3C" stroke-width="2" stroke-linecap="round" stroke-linejoin="round" stroke-miterlimit="10" x1="850.282" y1="128.433" x2="492.995" y2="128.433"/>
	</g>
</g>
</svg>
